<?xml version="1.0" encoding="UTF-8" standalone="no"?>
<!-- Created with Inkscape (http://www.inkscape.org/) -->

<svg
   xmlns:dc="http://purl.org/dc/elements/1.1/"
   xmlns:cc="http://creativecommons.org/ns#"
   xmlns:rdf="http://www.w3.org/1999/02/22-rdf-syntax-ns#"
   xmlns:svg="http://www.w3.org/2000/svg"
   xmlns="http://www.w3.org/2000/svg"
   xmlns:sodipodi="http://sodipodi.sourceforge.net/DTD/sodipodi-0.dtd"
   xmlns:inkscape="http://www.inkscape.org/namespaces/inkscape"
   width="39.415356"
   height="25.70871"
   id="svg6198"
   version="1.1"
   inkscape:version="0.48.4 r9939"
   sodipodi:docname="busqueda-con-roles-flecha.png">
  <defs
     id="defs6200" />
  <sodipodi:namedview
     id="base"
     pagecolor="#ffffff"
     bordercolor="#666666"
     borderopacity="1.0"
     inkscape:pageopacity="0.0"
     inkscape:pageshadow="2"
     inkscape:zoom="2.8"
     inkscape:cx="-6.2918119"
     inkscape:cy="25.984302"
     inkscape:document-units="px"
     inkscape:current-layer="layer1"
     showgrid="false"
     showborder="false"
     inkscape:showpageshadow="false"
     fit-margin-top="0"
     fit-margin-left="0"
     fit-margin-right="0"
     fit-margin-bottom="0"
     inkscape:window-width="513"
     inkscape:window-height="422"
     inkscape:window-x="0"
     inkscape:window-y="0"
     inkscape:window-maximized="0" />
  <metadata
     id="metadata6203">
    <rdf:RDF>
      <cc:Work
         rdf:about="">
        <dc:format>image/svg+xml</dc:format>
        <dc:type
           rdf:resource="http://purl.org/dc/dcmitype/StillImage" />
        <dc:title></dc:title>
      </cc:Work>
    </rdf:RDF>
  </metadata>
  <g
     inkscape:label="Layer 1"
     inkscape:groupmode="layer"
     id="layer1"
     transform="translate(-533.50661,-415.57926)">
    <path
       d="m 534.3477,416.98928 c 14.4275,-2.375 30.47,9.76375 33.05,23.9225 0.12,0.65375 2.38,0.1175 2.24875,-0.60125 -2.75625,-15.11875 -19.82375,-26.8875 -34.9475,-24.3975 -1,0.165 -1.91625,1.33375 -0.35125,1.07625"
       style="fill:#f04d40;fill-opacity:1;fill-rule:nonzero;stroke:none"
       id="path736"
       inkscape:connector-curvature="0" />
    <path
       d="m 570.6868,435.01058 c -0.46125,2.18 -1.5375,4.1875 -3.115,5.76 -0.38375,0.3825 0.3275,0.5025 0.56375,0.49375 0.5225,-0.0187 1.1175,-0.1925 1.49375,-0.56875 1.6425,-1.63625 2.8075,-3.765 3.28625,-6.03125 0.14125,-0.67 -2.095,-0.29375 -2.22875,0.34625"
       style="fill:#f04d40;fill-opacity:1;fill-rule:nonzero;stroke:none"
       id="path740"
       inkscape:connector-curvature="0" />
    <path
       d="m 562.7852,438.60918 c 1.4125,1.2625 3.25625,1.9625 5.00625,2.62125 0.9275,0.34875 2.635,-0.98125 1.30625,-1.4825 -1.61625,-0.60875 -3.26875,-1.24625 -4.57375,-2.41375 -0.72125,-0.64375 -2.6975,0.41875 -1.73875,1.275"
       style="fill:#f04d40;fill-opacity:1;fill-rule:nonzero;stroke:none"
       id="path744"
       inkscape:connector-curvature="0" />
  </g>
</svg>
