<?xml version="1.0" encoding="UTF-8" standalone="no"?>
<!-- Created with Inkscape (http://www.inkscape.org/) -->

<svg
   xmlns:dc="http://purl.org/dc/elements/1.1/"
   xmlns:cc="http://creativecommons.org/ns#"
   xmlns:rdf="http://www.w3.org/1999/02/22-rdf-syntax-ns#"
   xmlns:svg="http://www.w3.org/2000/svg"
   xmlns="http://www.w3.org/2000/svg"
   xmlns:sodipodi="http://sodipodi.sourceforge.net/DTD/sodipodi-0.dtd"
   xmlns:inkscape="http://www.inkscape.org/namespaces/inkscape"
   width="33.015564"
   height="33.378983"
   id="svg6187"
   version="1.1"
   inkscape:version="0.48.4 r9939"
   sodipodi:docname="New document 3">
  <defs
     id="defs6189">
    <clipPath
       clipPathUnits="userSpaceOnUse"
       id="clipPath654">
      <path
         inkscape:connector-curvature="0"
         d="m 5928.22,6151.57 13.16,0 0,-11.55 -13.16,0 0,11.55 z"
         id="path656" />
    </clipPath>
  </defs>
  <sodipodi:namedview
     id="base"
     pagecolor="#ffffff"
     bordercolor="#666666"
     borderopacity="1.0"
     inkscape:pageopacity="0.0"
     inkscape:pageshadow="2"
     inkscape:zoom="1.979899"
     inkscape:cx="95.243365"
     inkscape:cy="29.962682"
     inkscape:document-units="px"
     inkscape:current-layer="layer1"
     showgrid="false"
     fit-margin-top="0"
     fit-margin-left="0"
     fit-margin-right="0"
     fit-margin-bottom="0"
     showborder="false"
     inkscape:showpageshadow="false"
     inkscape:window-width="595"
     inkscape:window-height="422"
     inkscape:window-x="0"
     inkscape:window-y="0"
     inkscape:window-maximized="0" />
  <metadata
     id="metadata6192">
    <rdf:RDF>
      <cc:Work
         rdf:about="">
        <dc:format>image/svg+xml</dc:format>
        <dc:type
           rdf:resource="http://purl.org/dc/dcmitype/StillImage" />
        <dc:title></dc:title>
      </cc:Work>
    </rdf:RDF>
  </metadata>
  <g
     inkscape:label="Layer 1"
     inkscape:groupmode="layer"
     id="layer1"
     transform="translate(-214.20651,-606.38698)">
    <g
       transform="matrix(1.25,0,0,-1.25,-7187.8723,8305.1114)"
       id="g650">
      <g
         id="g652" />
      <g
         id="g658">
        <g
           style="opacity:0.94999701"
           clip-path="url(#clipPath654)"
           id="g660">
          <g
             transform="translate(5933.4902,6141.7031)"
             id="g662">
            <path
               inkscape:connector-curvature="0"
               d="m 0,0 -1.536,0.028 c 0,0 0.662,5.192 -0.796,8.263 0,0 1.14,0.319 2.012,0.267 0,0 0.956,-4.849 0.32,-8.558 M 7.612,-0.214 C 6.852,-0.142 6.33,-0.069 5.688,-0.003 5.619,0.005 5.43,0.056 5.396,0.341 5.123,3.343 5.262,6.296 6.443,9.081 6.188,9.177 5.969,9.282 5.734,9.345 3.135,10.038 0.494,9.952 -2.171,9.624 -2.669,9.565 -3.995,9.267 -3.922,9.009 -3.119,6.263 -2.398,3.168 -2.846,0.329 -2.885,0.063 -2.99,-0.009 -3.241,-0.028 c -0.596,-0.054 -1.193,-0.125 -1.782,-0.229 -0.379,-0.041 -0.253,-0.652 -0.112,-0.715 0.765,-0.326 7.288,-1.431 12.782,0.018 0.283,0.076 0.386,0.701 -0.035,0.74"
               style="fill:#f04d40;fill-opacity:1;fill-rule:evenodd;stroke:none"
               id="path664" />
          </g>
        </g>
      </g>
    </g>
    <g
       id="g606"
       transform="matrix(1.25,0,0,-1.25,246.59957,622.03842)">
      <path
         inkscape:connector-curvature="0"
         d="m 0,0 c -0.392,0.899 -0.297,2.173 -0.846,3.087 -0.052,0.109 0.183,0.03 0.054,0.274 -0.57,0.851 -1.132,2.275 -1.733,3.373 l 0.087,-0.027 c -0.119,0.206 -0.42,0.331 -0.565,0.529 0.024,0.024 0.089,-0.028 0.087,0.045 -0.121,-0.021 -0.326,0.31 -0.457,0.332 -0.037,0.098 0.029,0.146 -0.025,0.27 l -0.184,0.021 c -0.466,0.083 -0.668,0.679 -1.176,0.908 0.037,0.005 0.092,-0.011 0.076,0.036 -0.765,0.411 -1.632,1.017 -2.511,1.379 0.05,0.02 0.117,0.072 0.088,0.139 -0.096,-0.085 -0.375,0.007 -0.616,0.088 -0.05,0.17 -0.444,0.056 -0.69,0.23 l 0.033,0.018 c -0.249,-0.052 -0.282,0.178 -0.5,0.084 l -0.101,0.14 c -0.143,-0.144 -0.277,0.176 -0.476,0.138 L -9.46,11.027 c -0.173,0.006 -0.239,0.109 -0.399,0.116 l -0.01,0.024 c -0.369,0.042 -0.565,0.169 -0.58,0.032 -0.108,0.133 0.361,-0.013 0.192,0.183 -1.231,0.097 -2.483,0.179 -3.709,0.058 -0.143,0.04 -0.235,0.045 -0.272,0.095 -0.119,-0.044 -0.46,-0.083 -0.557,-0.179 0.039,0.01 -0.091,0.057 -0.156,0.052 -0.233,0.011 -0.213,-0.19 -0.464,-0.186 0.087,0.059 0.11,0.111 0.067,0.154 -0.182,-0.157 -0.461,-0.192 -0.689,-0.3 0.031,0.033 0.084,0.063 0.064,0.103 -0.227,-0.195 -0.487,-0.106 -0.688,-0.262 l 0.059,0.105 c -0.397,-0.03 -0.052,-0.197 -0.385,-0.248 0.067,0.05 0.029,0.071 0.032,0.106 -0.241,-0.243 -0.719,-0.383 -0.976,-0.561 0.013,0.017 -10e-4,0.035 -10e-4,0.035 -0.296,-0.155 -0.631,-0.272 -0.917,-0.513 -0.133,-0.035 -0.059,0.195 -0.354,-0.009 0.092,-0.129 -0.474,-0.382 -0.199,-0.423 -0.27,-0.133 -0.69,-0.367 -0.816,-0.533 0.07,0.134 -0.237,0.067 -0.046,0.234 l -0.212,-0.04 c -0.018,0.07 0.171,0.105 0.072,0.134 -0.098,-0.087 -0.354,-0.364 -0.455,-0.42 -0.116,-0.236 -0.162,-0.506 -0.414,-0.784 0.084,0.168 -0.198,0.06 -0.129,0.164 -0.058,-0.197 -0.112,-0.392 -0.155,-0.592 -0.08,-0.095 -0.111,0.07 -0.205,-0.091 0.038,-0.023 0.004,-0.097 -0.009,-0.16 -0.047,-0.02 -0.305,-0.414 -0.465,-0.351 -0.084,-0.002 0.108,0.176 -0.027,0.107 -0.152,-0.176 -0.108,-0.224 -0.252,-0.406 l -0.019,0.01 c -0.118,-0.104 -0.218,-0.399 -0.05,-0.318 0.068,0.081 -0.102,0.026 0.031,0.122 0.006,-0.139 -0.121,-0.373 -0.254,-0.558 0.025,0.078 -0.015,0.094 -0.035,0.146 -0.072,-0.324 -0.215,-0.616 -0.34,-0.936 0.065,-0.044 -0.055,0.18 0.004,0.203 -0.316,-0.327 -0.309,-0.856 -0.6,-1.115 0.012,0.06 0.11,-0.017 0.09,-0.012 -0.095,-0.186 -0.192,-0.132 -0.211,-0.275 -0.064,0.014 -0.056,-0.164 -0.085,-0.303 0.016,-0.085 -0.043,-0.022 -0.004,0.095 -0.028,-0.206 -0.215,-0.963 -0.414,-1.375 0.045,-0.005 0.072,-0.307 0.047,-0.406 l -0.088,0.064 c -0.08,-0.078 -0.071,-0.34 -0.158,-0.338 0.062,-0.244 0.102,0.858 0.123,0.542 -0.108,-0.053 0.054,-0.445 -0.064,-0.349 -0.044,-0.206 0.018,-0.424 -0.105,-0.602 0.026,0.053 -0.107,0.194 -0.13,0.025 -0.036,-0.299 0.033,-0.093 0.023,-0.336 l 0.018,-0.157 c 0.095,-0.024 -0.046,-0.26 0.076,-0.166 -0.084,-0.027 -0.006,-0.43 -0.162,-0.384 l -0.122,0.054 c -0.003,-0.131 0.117,-0.224 0.165,-0.329 -0.013,-0.015 -0.041,-0.047 -0.061,-0.039 0.194,-0.034 -0.044,-0.305 0.109,-0.464 -0.082,-0.266 -0.017,-0.678 -0.13,-0.808 0.06,-0.205 0.144,-0.388 0.122,-0.624 -0.023,0.045 -0.032,0.108 -0.075,0.119 -0.047,-0.152 0.007,-0.185 0.048,-0.317 -0.035,0.028 -0.078,-0.305 -0.126,-0.481 0.084,-0.198 0.179,-0.111 0.246,-0.123 -0.159,-0.216 0.214,-0.547 0.098,-0.807 -0.044,0.062 -0.156,0.274 -0.169,0.096 -0.142,-0.227 0.22,-0.342 0.208,-0.657 l 0.135,0.113 c -0.06,-0.156 0.21,-0.4 0.045,-0.417 0.079,-0.081 0.057,-0.356 0.194,-0.275 0.02,-0.521 0.498,-1.086 0.373,-1.479 0.05,-0.056 0.11,-0.226 0.164,-0.158 0.024,0.143 -0.129,0.121 -0.093,0.187 0.031,-0.056 0.075,-0.05 0.097,-0.047 0.037,-0.152 0.084,-0.267 -0.099,-0.193 0.075,-0.354 0.39,-0.2 0.555,-0.602 -0.065,-0.016 -0.07,-0.057 0.002,-0.163 0.072,-0.052 0.146,-0.101 0.221,-0.148 0.13,-0.25 -0.038,-0.214 -0.126,-0.279 0.098,-0.118 0.194,-0.28 0.304,-0.287 l -0.005,-0.23 c 0.003,0.168 0.127,-0.064 0.189,-0.107 l -0.062,0.043 c -0.022,-0.051 0.103,-0.179 0.172,-0.239 0.039,0.058 -0.047,0.216 -0.086,0.309 0.083,-0.036 0.143,-0.14 0.254,-0.184 -0.108,-0.039 0.091,-0.24 0.156,-0.342 0.066,-0.124 0.175,-0.057 0.196,-0.091 -0.04,-0.038 0.14,-0.175 0.011,-0.145 -0.045,0.025 -0.029,0.116 -0.117,0.143 0.027,-0.094 -0.053,-0.15 0.125,-0.247 0.133,-0.072 0.134,0.167 0.259,-0.081 -0.066,0.036 -0.106,0.017 -0.171,0.033 l 0.128,-0.226 0.079,0.058 c 0.005,-0.041 -0.017,-0.03 -0.016,-0.05 0.127,0.016 0.289,-0.258 0.41,-0.217 0.098,-0.082 0.145,-0.232 0.225,-0.325 l -0.023,0.01 c 0.066,-0.147 0.24,-0.252 0.378,-0.281 l -0.019,-0.012 c 0.056,-0.058 0.211,-0.172 0.324,-0.192 0.113,-0.183 -0.178,-0.33 0.079,-0.375 0.168,-0.128 0.366,-0.06 0.337,0.042 0.262,-0.276 0.696,-0.379 0.908,-0.687 0.066,0.005 0.049,0.043 0.156,0.008 0.45,-0.316 1.055,-0.44 1.373,-0.788 -0.162,0.028 -0.049,-0.085 -0.068,-0.138 0.154,0.025 0.111,-0.145 0.213,-0.025 0.021,0.087 0.049,0.119 -0.078,0.212 0.317,-0.082 0.773,-0.253 0.92,-0.383 -0.073,0.068 0.003,0.071 0.078,0.074 -0.067,-0.127 0.154,-0.226 0.345,-0.224 l 0.047,0.076 0.09,-0.117 c 0.075,0.008 0.119,0.151 0.272,0.026 0,-0.034 0.002,-0.07 0.029,-0.101 0.201,0.029 0.477,0.076 0.661,-0.026 l 0.142,-0.152 c 0.088,-0.002 0.242,0.047 0.099,0.109 0.327,-0.138 0.549,-0.16 0.647,-0.287 0.625,0.193 1.469,0.175 2.156,0.205 l -0.015,-0.066 c 0.187,-0.046 0.086,0.12 0.218,0.085 -0.055,-0.066 0.153,-0.122 0.012,-0.208 0.275,-0.05 0.333,0.143 0.5,0.193 0.016,0.087 -0.131,-0.071 -0.111,0.039 0.025,0.034 0.372,-0.019 0.393,0.113 0.073,-0.04 0.036,-0.142 0.009,-0.197 l 0.15,0.088 c 0.225,-0.118 -0.412,-0.334 -0.177,-0.482 l 0.15,0.04 c 0.17,-0.112 -0.387,-0.205 0.01,-0.197 0.16,0.092 0.268,0.299 0.112,0.329 0.335,0.098 0.105,0.323 0.464,0.386 0.115,-0.056 -0.281,-0.077 -0.193,-0.165 0.193,-0.074 0.329,0.131 0.486,0.128 -0.178,0.008 -0.065,0.166 0.035,0.214 0.193,-0.017 -0.089,-0.145 0.17,-0.099 0.024,0.083 0.24,0.203 0.027,0.195 0.047,0.187 0.274,0.03 0.372,0.193 0.118,-0.089 -0.182,-0.335 0.114,-0.312 -0.074,0.091 0.293,0.256 0.096,0.368 0.116,0.005 0.157,-0.075 0.1,-0.168 0.176,-0.013 0.301,0.319 0.426,0.127 l 0.012,0.129 c 0.059,-0.017 0.136,-0.017 0.236,-0.045 0.137,0.048 0.363,0.315 0.42,0.154 0.034,0.035 0.334,0.162 0.168,0.22 -0.212,-0.015 -0.174,-0.176 -0.34,-0.072 0.182,-0.064 0.256,0.135 0.34,0.222 l 0.045,-0.054 c 0.052,0.05 0.199,0.109 0.205,0.194 -0.03,-0.058 0.014,-0.087 0.071,-0.077 l 0.017,0.125 c 0.222,0.172 0.142,-0.133 0.369,0.021 L -7.18,-11.55 c 0.032,0.038 0.164,-0.01 0.262,0.087 -10e-4,0.108 0.025,0.253 0.027,0.338 0.11,0.11 0.113,-0.058 0.193,0.099 l -0.113,-0.195 c -0.011,-0.041 0.196,-0.071 0.372,0.041 0.094,0.1 0.191,0.324 -0.009,0.256 0.085,0.056 0.237,0.086 0.206,-0.016 0.178,0.153 -0.081,0.068 0.054,0.225 0.104,-0.008 0.361,0.069 0.543,0.085 l -0.083,-0.251 0.119,0.082 c -0.079,-0.21 0.132,-0.024 0.125,-0.192 0.092,0.041 0.166,0.146 0.218,0.234 -0.353,-0.007 0.075,0.429 -0.113,0.528 0.266,0.274 0.488,-0.21 0.6,0.282 -0.084,-0.005 -0.039,0.229 -0.184,0.03 0.192,0.142 -0.004,0.245 0.25,0.377 -0.096,-0.202 0.297,0.011 0.156,-0.282 -0.027,0.06 -0.156,-0.079 -0.181,-0.122 0.124,0.011 0.117,-0.163 0.3,0.008 0.098,0.119 0.247,0.266 0.155,0.317 -0.082,0.076 -0.158,-0.167 -0.166,-0.019 0.189,0.231 0.344,0.151 0.287,0.378 -0.117,-0.148 -0.233,-0.098 -0.284,-0.041 l 0.116,0.186 0.024,-0.082 c 0.277,0.214 -0.026,0.167 0.218,0.394 l 0.211,0.021 c 0.045,-0.149 -0.373,-0.321 -0.184,-0.418 0.161,0.154 0.134,0.276 0.307,0.399 -0.016,-0.046 -0.055,-0.097 -0.07,-0.144 0.055,0.054 0.312,-0.063 0.401,0.281 0.056,0.167 -0.028,0.08 -0.085,0.132 0.198,0.295 0.209,0.419 0.328,0.611 0.094,-0.126 0.244,0.319 0.223,0.025 -0.133,-0.049 -0.437,-0.455 -0.406,-0.643 0.22,-0.011 -0.196,-0.203 -0.114,-0.374 0.194,0.216 0.318,0.096 0.436,0.061 0.057,0.06 0.068,0.153 0.085,0.203 -0.064,0.094 -0.128,0.008 -0.218,0.073 0.229,0.234 0.361,0.527 0.377,0.731 0.106,0.057 0.175,-0.03 0.109,-0.142 0.197,0.334 0.428,0.674 0.637,0.98 -0.269,-0.119 0.166,0.374 -0.042,0.304 -0.13,-0.151 -0.321,-0.231 -0.337,-0.1 0.07,0.097 0.065,-0.042 0.123,-0.017 -0.007,0.177 0.252,0.134 0.186,0.34 -0.108,-0.334 0.158,-0.161 0.25,-0.282 0.049,0.264 0.082,-0.055 0.197,0.171 0.056,0.261 0.124,0.574 0.214,0.842 0.261,0.278 0.327,0.839 0.416,1.14 0.112,0.139 0.23,-0.015 0.306,0.154 0.054,0.207 -0.205,-0.107 -0.05,0.179 l 0.021,-0.038 c -0.003,0.098 0.247,0.54 0.049,0.679 l 0.143,-0.132 c 0.028,0.055 0.003,0.117 -0.003,0.168 0.053,-0.009 0.117,0.049 0.131,-0.054 0.163,0.169 0.058,0.413 0.095,0.623 l -0.123,-0.118 c -0.005,0.37 0.11,0.599 0.12,0.953 L -0.259,-2.215 -0.301,-2 c 0.09,-0.06 0.166,0.131 0.096,0.248 l 0.192,-0.574 c -0.075,-0.147 -0.098,0.18 -0.204,0.094 -0.092,-0.074 -0.108,-0.4 -0.021,-0.467 0.026,0.124 0.006,0.134 -0.017,0.235 0.14,0.026 0.11,-0.165 0.188,-0.273 0.003,0.067 0.055,0.157 0.015,0.177 0.046,-0.139 0.048,-0.275 0.011,-0.493 -0.025,0.155 -0.097,-0.067 -0.125,-0.005 0.115,-0.036 0.114,-0.252 0.032,-0.514 -0.182,-0.159 -0.019,-0.522 -0.147,-0.821 -0.079,0.156 -0.133,0.337 -0.141,0.534 -0.104,-0.176 -0.041,-0.215 -0.155,-0.387 0.061,-0.113 0.176,-0.216 0.157,-0.482 l -0.09,0.013 c -0.025,-0.237 0.096,-0.277 -0.023,-0.556 -0.209,-0.472 -0.423,-0.956 -0.602,-1.304 l -0.087,0.025 c 0.075,-0.279 -0.266,-0.678 -0.346,-0.97 -0.323,-0.389 -0.52,-0.966 -0.797,-1.084 -0.471,-0.747 -0.947,-1.378 -1.649,-1.975 l 0.024,0.201 c -0.053,-0.183 -0.126,-0.019 -0.234,-0.138 0.208,0.044 -0.078,-0.245 -0.114,-0.381 -0.375,-0.189 -0.725,-0.588 -0.978,-0.872 l -0.061,0.065 c -0.213,-0.346 -0.671,-0.461 -1.082,-0.658 -0.062,0.005 -0.177,0.042 -0.292,-0.029 -0.155,-0.239 -0.272,-0.297 -0.571,-0.526 -0.242,-0.118 -0.664,-0.24 -0.936,-0.286 -0.885,-0.533 -1.935,-0.652 -2.964,-0.891 L -11.309,-14 c -1.003,-0.341 -2.277,-0.1 -3.15,-0.091 l 0.106,0.167 c -0.261,0.083 -0.62,0.044 -0.573,-0.092 -0.262,0.096 -0.695,0.043 -0.832,0.231 -0.266,0.093 -0.354,0.003 -0.588,0.043 -0.525,0.224 -0.726,0.275 -1.235,0.439 l 0.118,-0.059 c 0.069,0.015 0.101,0.085 -0.017,0.144 -0.206,0.019 -0.652,0.323 -0.556,0.05 -0.473,0.33 -1.247,0.499 -1.638,0.934 0.01,-0.076 -0.115,-0.009 -0.185,-0.01 -0.432,0.264 -0.784,0.675 -1.157,0.846 -0.045,0.072 0.162,-10e-4 0.006,0.129 -0.108,0.058 -0.051,-0.057 -0.187,0.01 -0.704,0.439 -1.142,1.194 -1.631,1.734 -0.94,0.928 -1.617,2.15 -2.129,3.298 l 0.045,0.004 c -0.321,0.328 -0.202,0.974 -0.537,1.216 0.006,0.107 -0.088,0.372 0.011,0.323 -0.208,0.294 -0.14,0.929 -0.36,1.377 0.003,-0.045 0.017,-0.068 0.044,-0.115 0.004,0.494 -0.184,0.904 -0.135,1.427 0.022,-0.051 0.043,-0.144 0.086,-0.155 0.069,0.201 -0.218,0.456 -0.013,0.576 -0.005,0.113 -0.106,0.076 -0.098,0.007 0.037,1.12 -0.015,2.328 0.207,3.495 0.315,0.791 0.336,-0.031 0.361,0.645 0.054,0.04 -0.064,0.058 -0.021,0.056 0.013,0.264 0.33,0.312 0.285,0.51 -0.144,-0.029 -0.029,0.133 -0.102,0.164 0.245,0.458 0.397,0.502 0.459,0.91 l 0.049,-0.053 c 0.016,0.507 0.347,0.954 0.36,1.406 1.26,2.311 3.097,4.236 5.408,5.463 2.295,1.144 4.876,1.749 7.472,1.388 0.588,-0.244 0.625,-0.237 1.295,-0.287 -0.033,-0.023 -0.074,-0.022 -0.036,-0.056 0.062,0.141 0.46,-0.084 0.553,0.035 0.93,-0.248 1.784,-0.503 2.685,-0.924 -0.151,0.05 -0.27,-0.024 -0.098,-0.092 l 0.215,0 0.009,-0.051 c 0.124,-0.038 0.28,-0.039 0.183,0.063 2.319,-1.032 4.01,-2.986 5.298,-5.012 C -1.078,5.573 -0.643,4.879 -0.371,4.31 0.178,2.513 0.352,0.876 0.498,-0.975 0.491,-0.975 0.137,-0.729 0,0"
         style="fill:#f04d40;fill-opacity:1;fill-rule:nonzero;stroke:none"
         id="path608" />
    </g>
  </g>
</svg>
