<?xml version="1.0" encoding="UTF-8" standalone="no"?>
<!-- Created with Inkscape (http://www.inkscape.org/) -->

<svg
   xmlns:dc="http://purl.org/dc/elements/1.1/"
   xmlns:cc="http://creativecommons.org/ns#"
   xmlns:rdf="http://www.w3.org/1999/02/22-rdf-syntax-ns#"
   xmlns:svg="http://www.w3.org/2000/svg"
   xmlns="http://www.w3.org/2000/svg"
   version="1.1"
   width="99.873466"
   height="36.810169"
   id="svg5767"
   style="enable-background:new">
  <defs
     id="defs5769">
    <clipPath
       id="clipPath1868">
      <path
         d="m 0,11338.58 11338.58,0 L 11338.58,0 0,0 0,11338.58 z"
         id="path1870" />
    </clipPath>
    <clipPath
       id="clipPath1880">
      <path
         d="m 4684.37,3999.95 64.2,0 0,-12.66 -64.2,0 0,12.66 z"
         id="path1882" />
    </clipPath>
    <clipPath
       id="clipPath1896">
      <path
         d="m 4685.08,3981.82 62.65,0 0,-5.66 -62.65,0 0,5.66 z"
         id="path1898" />
    </clipPath>
    <clipPath
       id="clipPath1780">
      <path
         d="m 4676.01,3975.817 c 0,-2.271 17.58,-4.129 39.261,-4.129 l 0,0 c 21.675,0 39.25,1.858 39.25,4.129 l 0,0 c 0,2.291 -17.575,4.135 -39.25,4.135 l 0,0 c -21.681,0 -39.261,-1.844 -39.261,-4.135"
         id="path1782" />
    </clipPath>
    <mask
       id="mask1806">
      <g
         id="g1808">
        <g
           clip-path="url(#clipPath1788)"
           id="g1810">
          <path
             d="m 4676.012,3979.952 78.51,0 0,-8.264 -78.51,0 0,8.264 z"
             id="path1812"
             style="fill:#000000;fill-opacity:1;fill-rule:nonzero;stroke:none" />
          <g
             id="g1814">
            <g
               id="g1816" />
            <g
               id="g1818">
              <g
                 clip-path="url(#clipPath1792)"
                 id="g1820">
                <g
                   id="g1822">
                  <g
                     clip-path="url(#clipPath1796)"
                     id="g1824">
                    <g
                       id="g1826">
                      <g
                         id="g1828">
                        <path
                           d="m 4676.012,3979.955 78.51,0 0,-8.264 -78.51,0 0,8.264 z"
                           id="path1830"
                           style="fill:url(#radialGradient1800);stroke:none" />
                      </g>
                    </g>
                  </g>
                </g>
              </g>
            </g>
          </g>
        </g>
      </g>
    </mask>
    <clipPath
       id="clipPath1788">
      <path
         d="m 4676.01,3979.95 78.51,0 0,-8.26 -78.51,0 0,8.26 z"
         id="path1790" />
    </clipPath>
    <clipPath
       id="clipPath1792">
      <path
         d="m 4676.01,3979.95 78.51,0 0,-8.26 -78.51,0 0,8.26 z"
         id="path1794" />
    </clipPath>
    <clipPath
       id="clipPath1796">
      <path
         d="m 4676.012,3979.955 78.51,0 0,-8.264 -78.51,0 0,8.264 z"
         id="path1798" />
    </clipPath>
    <radialGradient
       cx="0"
       cy="0"
       r="1"
       fx="0"
       fy="0"
       id="radialGradient1800"
       gradientUnits="userSpaceOnUse"
       gradientTransform="matrix(39.239151,0,0,4.1338501,4715.3105,3975.8213)"
       spreadMethod="pad">
      <stop
         id="stop1802"
         style="stop-color:#d2d4d5;stop-opacity:1"
         offset="0" />
      <stop
         id="stop1804"
         style="stop-color:#373535;stop-opacity:1"
         offset="1" />
    </radialGradient>
    <clipPath
       id="clipPath1836">
      <path
         d="m 4676.01,3979.95 78.51,0 0,-8.26 -78.51,0 0,8.26 z"
         id="path1838" />
    </clipPath>
    <clipPath
       id="clipPath1840">
      <path
         d="m 4676.012,3979.952 78.51,0 0,-8.264 -78.51,0 0,8.264 z"
         id="path1842" />
    </clipPath>
    <radialGradient
       cx="0"
       cy="0"
       r="1"
       fx="0"
       fy="0"
       id="radialGradient1844"
       gradientUnits="userSpaceOnUse"
       gradientTransform="matrix(39.239151,0,0,4.1338501,4715.3105,3975.8174)"
       spreadMethod="pad">
      <stop
         id="stop1846"
         style="stop-color:#292929;stop-opacity:1"
         offset="0" />
      <stop
         id="stop1848"
         style="stop-color:#292929;stop-opacity:1"
         offset="1" />
    </radialGradient>
    <filter
       color-interpolation-filters="sRGB"
       id="filter6197">
      <feBlend
         in2="BackgroundImage"
         mode="multiply"
         id="feBlend6199" />
    </filter>
  </defs>
  <metadata
     id="metadata5772">
    <rdf:RDF>
      <cc:Work
         rdf:about="">
        <dc:format>image/svg+xml</dc:format>
        <dc:type
           rdf:resource="http://purl.org/dc/dcmitype/StillImage" />
        <dc:title></dc:title>
      </cc:Work>
    </rdf:RDF>
  </metadata>
  <g
     transform="translate(8.633979,3.6871257)"
     id="layer2" />
  <g
     transform="matrix(0.8672801,0,0,0.8672801,-421.39713,-429.26841)"
     id="layer1"
     style="opacity:0.93661972;filter:url(#filter6197)">
    <g
       id="g6201">
      <g
         transform="matrix(1.25,0,0,-1.25,-5350.6204,5498.8782)"
         id="g1776">
        <g
           clip-path="url(#clipPath1780)"
           id="g1778">
          <g
             id="g1784">
            <g
               id="g1786" />
            <g
               mask="url(#mask1806)"
               id="g1832">
              <g
                 id="g1834" />
              <g
                 id="g1850">
                <g
                   clip-path="url(#clipPath1836)"
                   id="g1852">
                  <g
                     id="g1854">
                    <g
                       clip-path="url(#clipPath1840)"
                       id="g1856">
                      <g
                         id="g1858">
                        <g
                           id="g1860">
                          <path
                             d="m 4676.012,3979.952 78.51,0 0,-8.264 -78.51,0 0,8.264 z"
                             id="path1862"
                             style="fill:url(#radialGradient1844);stroke:none" />
                        </g>
                      </g>
                    </g>
                  </g>
                </g>
              </g>
            </g>
          </g>
        </g>
      </g>
      <g
         transform="matrix(1.25,0,0,-1.25,-5350.849,5498.0284)"
         id="g1864">
        <g
           clip-path="url(#clipPath1868)"
           id="g1866">
          <g
             transform="translate(4684.3652,3997.8037)"
             id="g1872">
            <path
               d="m 0,0 c 0,1.182 0.958,2.142 2.141,2.142 l 59.92,0 c 1.183,0 2.141,-0.96 2.141,-2.142 l 0,-20.395 c 0,-1.185 -0.958,-2.143 -2.141,-2.143 l -59.92,0 C 0.958,-22.538 0,-21.58 0,-20.395 L 0,0 z"
               id="path1874"
               style="fill:#e65c4e;fill-opacity:1;fill-rule:nonzero;stroke:none" />
          </g>
          <g
             id="g1876">
            <g
               id="g1878" />
            <g
               id="g1884">
              <g
                 clip-path="url(#clipPath1880)"
                 id="g1886"
                 style="opacity:0.19999701">
                <g
                   transform="translate(4684.3652,3989.332)"
                   id="g1888">
                  <path
                     d="m 0,0 c 3.418,-1.284 47.23,-2.047 51.887,-2.047 4.633,0 8.902,0.759 12.315,2.026 l 0,8.493 c 0,1.181 -0.958,2.141 -2.141,2.141 l -59.92,0 C 0.958,10.613 0,9.653 0,8.472 L 0,0 z"
                     id="path1890"
                     style="fill:#ffffff;fill-opacity:1;fill-rule:nonzero;stroke:none" />
                </g>
              </g>
            </g>
          </g>
          <g
             id="g1892">
            <g
               id="g1894" />
            <g
               id="g1900">
              <g
                 clip-path="url(#clipPath1896)"
                 id="g1902"
                 style="opacity:0.19999701">
                <g
                   transform="translate(4685.0762,3980.1084)"
                   id="g1904">
                  <path
                     d="m 0,0 c 0,0.942 0.766,1.715 1.711,1.715 l 59.231,0 c 0.945,0 1.714,-0.773 1.714,-1.715 l 0,-2.231 c 0,-0.945 -0.769,-1.714 -1.714,-1.714 l -59.231,0 C 0.766,-3.945 0,-3.176 0,-2.231 L 0,0 z"
                     id="path1906"
                     style="fill:#ffffff;fill-opacity:1;fill-rule:nonzero;stroke:none" />
                </g>
              </g>
            </g>
          </g>
          <g
             transform="translate(4723.0781,3997.5498)"
             id="g1908">
            <path
               d="m 0,0 -1.119,0 0,-3.517 -3.516,0 0,-1.598 3.516,0 0,-3.196 1.119,0 0,3.196 3.836,0 0,1.598 L 0,-3.517 0,0 z"
               id="path1910"
               style="fill:#ffffff;fill-opacity:1;fill-rule:nonzero;stroke:none" />
          </g>
          <g
             transform="translate(4712.6836,3988.2686)"
             id="g1912">
            <path
               d="m 0,0 c -1.477,0.044 -2.879,1.652 -3.134,3.588 -0.255,1.936 0.736,3.421 2.21,3.377 C 0.55,6.919 1.953,5.365 2.209,3.429 2.465,1.49 1.474,-0.043 0,0 m 3.518,-6.233 c 0.045,-0.191 0.07,-0.39 0.07,-0.591 0,-1.671 -1.08,-2.977 -4.167,-2.977 -2.198,0 -3.786,1.392 -3.786,3.063 0,1.636 1.97,3.002 4.169,2.977 0.51,-0.005 0.991,-0.089 1.425,-0.226 1.191,-0.831 2.046,-1.299 2.289,-2.246 m 2,14.077 -5.725,0 c -2.567,0 -4.985,-1.98 -4.985,-4.231 0,-2.304 1.751,-4.179 4.361,-4.179 0.182,0 0.356,-0.004 0.534,0.009 -0.171,-0.326 -0.293,-0.695 -0.293,-1.073 0,-0.641 0.344,-1.165 0.781,-1.588 -0.33,0 -0.648,-0.009 -0.995,-0.009 -3.178,0 -5.628,-2.028 -5.628,-4.126 0,-2.068 2.684,-3.362 5.866,-3.362 3.625,0 5.626,2.056 5.626,4.126 0,1.656 -0.49,2.65 -2.001,3.72 -0.518,0.367 -1.508,1.259 -1.508,1.782 0,0.614 0.176,0.916 1.097,1.638 0.948,0.739 1.619,1.719 1.619,2.928 0,1.439 -0.642,2.925 -1.847,3.245 l 1.816,0 1.282,1.12 z"
               id="path1914"
               style="fill:#ffffff;fill-opacity:1;fill-rule:nonzero;stroke:none" />
          </g>
        </g>
      </g>
    </g>
  </g>
</svg>
