<?xml version="1.0" encoding="UTF-8" standalone="no"?>
<!-- Created with Inkscape (http://www.inkscape.org/) -->

<svg
   xmlns:dc="http://purl.org/dc/elements/1.1/"
   xmlns:cc="http://creativecommons.org/ns#"
   xmlns:rdf="http://www.w3.org/1999/02/22-rdf-syntax-ns#"
   xmlns:svg="http://www.w3.org/2000/svg"
   xmlns="http://www.w3.org/2000/svg"
   version="1.1"
   width="92"
   height="92"
   id="svg5430">
  <defs
     id="defs5432">
    <clipPath
       id="clipPath820">
      <path
         d="m 0,11338.58 11338.58,0 L 11338.58,0 0,0 0,11338.58 z"
         id="path822" />
    </clipPath>
    <clipPath
       id="clipPath836">
      <path
         d="m 5635.33,4551.27 22.95,0 0,-20.13 -22.95,0 0,20.13 z"
         id="path838" />
    </clipPath>
    <clipPath
       id="clipPath852">
      <path
         d="m 5622.66,4546.43 12.65,0 0,-11.09 -12.65,0 0,11.09 z"
         id="path854" />
    </clipPath>
    <clipPath
       id="clipPath868">
      <path
         d="m 5657.63,4546.43 12.65,0 0,-11.09 -12.65,0 0,11.09 z"
         id="path870" />
    </clipPath>
  </defs>
  <metadata
     id="metadata5435">
    <rdf:RDF>
      <cc:Work
         rdf:about="">
        <dc:format>image/svg+xml</dc:format>
        <dc:type
           rdf:resource="http://purl.org/dc/dcmitype/StillImage" />
        <dc:title></dc:title>
      </cc:Work>
    </rdf:RDF>
  </metadata>
  <g
     transform="translate(-63.84945,-363.37687)"
     id="layer1">
    <g
       transform="matrix(1.25,0,0,-1.25,-6949.9965,6085.149)"
       id="g816">
      <g
         transform="translate(1.6162441,-0.40406102)"
         clip-path="url(#clipPath820)"
         id="g818">
        <g
           transform="translate(5681.2686,4541.3711)"
           id="g824">
          <path
             d="m 0,0 c 0,-19.329 -15.67,-35 -35,-35 -19.33,0 -35,15.671 -35,35 0,19.331 15.67,35 35,35 C -15.67,35 0,19.331 0,0 z"
             id="path826"
             style="fill:none;stroke:#ffffff;stroke-width:2.01900005;stroke-linecap:butt;stroke-linejoin:miter;stroke-miterlimit:10;stroke-opacity:1;stroke-dasharray:none" />
        </g>
        <g
           transform="translate(5673.4551,4541.0098)"
           id="g828">
          <path
             d="m 0,0 c 0,-15.048 -12.201,-27.25 -27.25,-27.25 -15.05,0 -27.25,12.202 -27.25,27.25 0,15.052 12.2,27.25 27.25,27.25 C -12.201,27.25 0,15.052 0,0"
             id="path830"
             style="fill:#f04d40;fill-opacity:1;fill-rule:evenodd;stroke:none" />
        </g>
        <g
           id="g832">
          <g
             id="g834" />
          <g
             id="g840">
            <g
               clip-path="url(#clipPath836)"
               id="g842"
               style="opacity:0.94999701">
              <g
                 transform="translate(5644.5244,4534.0674)"
                 id="g844">
                <path
                   d="m 0,0 -2.679,0.045 c 0,0 1.153,9.05 -1.384,14.404 0,0 1.984,0.555 3.506,0.461 0,0 1.663,-8.447 0.557,-14.91 M 13.267,-0.377 C 11.94,-0.248 11.032,-0.127 9.913,-0.008 9.792,0.006 9.46,0.093 9.402,0.592 8.927,5.824 9.167,10.97 11.229,15.822 10.784,15.99 10.398,16.174 9.993,16.283 5.46,17.49 0.859,17.338 -3.783,16.772 -4.651,16.668 -6.964,16.143 -6.834,15.697 -5.437,10.914 -4.178,5.518 -4.96,0.57 -5.029,0.108 -5.21,-0.019 -5.651,-0.055 c -1.037,-0.09 -2.076,-0.214 -3.103,-0.394 -0.665,-0.076 -0.445,-1.137 -0.193,-1.242 1.33,-0.571 12.701,-2.497 22.272,0.029 0.493,0.129 0.674,1.216 -0.058,1.285"
                   id="path846"
                   style="fill:#ffffff;fill-opacity:1;fill-rule:evenodd;stroke:none" />
              </g>
            </g>
          </g>
        </g>
        <g
           id="g848">
          <g
             id="g850" />
          <g
             id="g856">
            <g
               clip-path="url(#clipPath852)"
               id="g858"
               style="opacity:0.94999701">
              <g
                 transform="translate(5627.7305,4536.9531)"
                 id="g860">
                <path
                   d="m 0,0 -1.477,0.024 c 0,0 0.636,4.989 -0.762,7.94 0,0 1.093,0.307 1.932,0.256 C -0.307,8.22 0.61,3.562 0,0 M 7.313,-0.209 C 6.581,-0.134 6.081,-0.07 5.464,-0.003 5.397,0.002 5.215,0.054 5.184,0.325 4.92,3.211 5.054,6.05 6.188,8.721 5.945,8.815 5.731,8.916 5.509,8.976 3.01,9.644 0.474,9.557 -2.085,9.245 -2.563,9.188 -3.839,8.899 -3.766,8.651 -2.996,6.017 -2.302,3.043 -2.733,0.313 -2.772,0.06 -2.871,-0.009 -3.114,-0.029 -3.687,-0.079 -4.259,-0.146 -4.825,-0.25 -5.191,-0.291 -5.07,-0.875 -4.931,-0.933 c 0.733,-0.312 7.001,-1.375 12.277,0.017 0.27,0.071 0.37,0.671 -0.033,0.707"
                   id="path862"
                   style="fill:#ffffff;fill-opacity:1;fill-rule:evenodd;stroke:none" />
              </g>
            </g>
          </g>
        </g>
        <g
           id="g864">
          <g
             id="g866" />
          <g
             id="g872">
            <g
               clip-path="url(#clipPath868)"
               id="g874"
               style="opacity:0.94999701">
              <g
                 transform="translate(5662.6934,4536.9531)"
                 id="g876">
                <path
                   d="m 0,0 -1.477,0.024 c 0,0 0.636,4.989 -0.762,7.94 0,0 1.093,0.307 1.932,0.256 C -0.307,8.22 0.61,3.562 0,0 M 7.313,-0.209 C 6.581,-0.134 6.081,-0.07 5.464,-0.003 5.397,0.002 5.215,0.054 5.183,0.325 4.92,3.211 5.054,6.05 6.189,8.721 5.944,8.815 5.732,8.916 5.509,8.976 3.01,9.644 0.474,9.557 -2.085,9.245 -2.563,9.188 -3.839,8.899 -3.767,8.651 -2.997,6.017 -2.303,3.043 -2.733,0.313 -2.772,0.06 -2.872,-0.009 -3.114,-0.029 -3.687,-0.079 -4.259,-0.146 -4.825,-0.25 -5.19,-0.291 -5.07,-0.875 -4.931,-0.933 c 0.733,-0.312 7,-1.375 12.276,0.017 0.272,0.071 0.372,0.671 -0.032,0.707"
                   id="path878"
                   style="fill:#ffffff;fill-opacity:1;fill-rule:evenodd;stroke:none" />
              </g>
            </g>
          </g>
        </g>
        <g
           transform="translate(5924.2998,4477.3467)"
           id="g880">
          <path
             d="m 0,0 -0.252,-0.197 0.254,0.195 C 0,-0.002 0,0 0,0"
             id="path882"
             style="fill:#373535;fill-opacity:1;fill-rule:nonzero;stroke:none" />
        </g>
        <g
           transform="translate(5921.1943,4477.8994)"
           id="g884">
          <path
             d="M 0,0 -0.252,-0.196 -0.25,-0.197 0,0 z"
             id="path886"
             style="fill:#373535;fill-opacity:1;fill-rule:nonzero;stroke:none" />
        </g>
      </g>
    </g>
  </g>
</svg>
