<?xml version="1.0" encoding="UTF-8" standalone="no"?>
<!-- Created with Inkscape (http://www.inkscape.org/) -->

<svg
   xmlns:dc="http://purl.org/dc/elements/1.1/"
   xmlns:cc="http://creativecommons.org/ns#"
   xmlns:rdf="http://www.w3.org/1999/02/22-rdf-syntax-ns#"
   xmlns:svg="http://www.w3.org/2000/svg"
   xmlns="http://www.w3.org/2000/svg"
   xmlns:sodipodi="http://sodipodi.sourceforge.net/DTD/sodipodi-0.dtd"
   xmlns:inkscape="http://www.inkscape.org/namespaces/inkscape"
   width="765.41638"
   height="673.815"
   id="svg8483"
   version="1.1"
   inkscape:version="0.48.4 r9939"
   sodipodi:docname="New document 2">
  <defs
     id="defs8485">
    <clipPath
       id="clipPath18"
       clipPathUnits="userSpaceOnUse">
      <path
         inkscape:connector-curvature="0"
         id="path20"
         d="m 4008.271,5217.003 1362.136,0 0,539.052 -1362.136,0 0,-539.052 z" />
    </clipPath>
  </defs>
  <sodipodi:namedview
     id="base"
     pagecolor="#ffffff"
     bordercolor="#666666"
     borderopacity="1.0"
     inkscape:pageopacity="0.0"
     inkscape:pageshadow="2"
     inkscape:zoom="0.35"
     inkscape:cx="391.99388"
     inkscape:cy="334.05028"
     inkscape:document-units="px"
     inkscape:current-layer="layer1"
     showgrid="false"
     borderlayer="true"
     showborder="false"
     inkscape:showpageshadow="false"
     fit-margin-top="0"
     fit-margin-left="0"
     fit-margin-right="0"
     fit-margin-bottom="0"
     inkscape:window-width="1366"
     inkscape:window-height="741"
     inkscape:window-x="0"
     inkscape:window-y="0"
     inkscape:window-maximized="1" />
  <metadata
     id="metadata8488">
    <rdf:RDF>
      <cc:Work
         rdf:about="">
        <dc:format>image/svg+xml</dc:format>
        <dc:type
           rdf:resource="http://purl.org/dc/dcmitype/StillImage" />
        <dc:title></dc:title>
      </cc:Work>
    </rdf:RDF>
  </metadata>
  <g
     inkscape:label="Layer 1"
     inkscape:groupmode="layer"
     id="layer1"
     transform="translate(16.993884,-192.59747)">
    <g
       style="display:inline"
       id="g14"
       transform="matrix(1.25,0,0,-1.25,-6760.7343,7338.8706)">
      <g
         clip-path="url(#clipPath18)"
         id="g16"
         transform="translate(998.4334,-39.036494)">
        <g
           transform="translate(4659.2197,5295.9219)"
           id="g22">
          <path
             id="path24"
             style="fill:#e7e8e9;fill-opacity:1;fill-rule:evenodd;stroke:none"
             d="m 0,0 -67.172,-14.471 c 0,0 -23.963,232.678 -118.619,351.567 0,0 46.338,25.406 84.915,32.005 0,0 90.797,-201.256 100.876,-369.101 m 333.452,68.036 c -33.834,-4.492 -57.251,-6.784 -85.873,-10.346 -3.092,-0.397 -11.866,-0.107 -16.224,11.973 -42.457,127.828 -66.484,257.815 -43.325,390.931 -12.054,1.611 -22.776,3.997 -33.516,4.324 -120.234,3.734 -234.168,-26.939 -346.834,-68.135 -21.093,-7.728 -75.77,-34.297 -69.903,-44.72 62.817,-111.311 125.745,-238.614 135.092,-366.739 0.902,-11.987 -2.857,-16.163 -13.646,-19.642 -25.386,-8.312 -50.62,-17.508 -75.218,-27.957 -16.13,-5.744 -4.419,-30.986 2.475,-32.173 36.537,-6.42 331.688,11.835 555.971,130.7 11.532,6.13 9.76,34.307 -8.999,31.784"
             inkscape:connector-curvature="0" />
        </g>
      </g>
    </g>
  </g>
</svg>
