<?xml version="1.0" encoding="UTF-8" standalone="no"?>
<!-- Created with Inkscape (http://www.inkscape.org/) -->

<svg
   xmlns:dc="http://purl.org/dc/elements/1.1/"
   xmlns:cc="http://creativecommons.org/ns#"
   xmlns:rdf="http://www.w3.org/1999/02/22-rdf-syntax-ns#"
   xmlns:svg="http://www.w3.org/2000/svg"
   xmlns="http://www.w3.org/2000/svg"
   version="1.1"
   width="1698.3025"
   height="7.3850002"
   id="svg7156">
  <defs
     id="defs7158">
    <clipPath
       id="clipPath1014">
      <path
         d="m 4979.882,4665.547 1366,0 0,24.601 -1366,0 0,-24.601 z"
         id="path1016" />
    </clipPath>
    <clipPath
       id="clipPath1022">
      <path
         d="m 4987.24,4709.05 1438.18,0 0,-24.81 -1438.18,0 0,24.81 z"
         id="path1024" />
    </clipPath>
    <clipPath
       id="clipPath1026">
      <path
         d="m 6425.425,4696.642 c 0,6.851 -304.26,12.407 -707.669,12.407 -403.451,0 -730.517,-5.556 -730.517,-12.407 0,-6.852 327.066,-12.407 730.517,-12.407 403.409,0 707.669,5.555 707.669,12.407"
         id="path1028" />
    </clipPath>
    <radialGradient
       cx="0"
       cy="0"
       r="1"
       fx="0"
       fy="0"
       id="radialGradient1030"
       gradientUnits="userSpaceOnUse"
       gradientTransform="matrix(724.79169,0,0,-12.311218,5706.3193,4696.6426)"
       spreadMethod="pad">
      <stop
         id="stop1032"
         style="stop-color:#646567;stop-opacity:1"
         offset="0" />
      <stop
         id="stop1034"
         style="stop-color:#ffffff;stop-opacity:1"
         offset="1" />
    </radialGradient>
  </defs>
  <metadata
     id="metadata7161">
    <rdf:RDF>
      <cc:Work
         rdf:about="">
        <dc:format>image/svg+xml</dc:format>
        <dc:type
           rdf:resource="http://purl.org/dc/dcmitype/StillImage" />
        <dc:title></dc:title>
      </cc:Work>
    </rdf:RDF>
  </metadata>
  <g
     transform="translate(563.437,-560.0983)"
     id="layer1">
    <g
       transform="matrix(1.25,0,0,-1.25,-6797.487,6422.7833)"
       id="g1010">
      <g
         clip-path="url(#clipPath1014)"
         id="g1012">
        <g
           id="g1018">
          <g
             id="g1020" />
          <g
             id="g1036">
            <g
               clip-path="url(#clipPath1022)"
               id="g1038">
              <g
                 id="g1040">
                <g
                   clip-path="url(#clipPath1026)"
                   id="g1042">
                  <g
                     id="g1044">
                    <g
                       id="g1046">
                      <path
                         d="m 6425.425,4696.642 c 0,6.851 -304.26,12.407 -707.669,12.407 -403.451,0 -730.517,-5.556 -730.517,-12.407 0,-6.852 327.066,-12.407 730.517,-12.407 403.409,0 707.669,5.555 707.669,12.407"
                         id="path1048"
                         style="fill:url(#radialGradient1030);stroke:none" />
                    </g>
                  </g>
                </g>
              </g>
            </g>
          </g>
        </g>
      </g>
    </g>
  </g>
</svg>
