<?xml version="1.0" encoding="UTF-8" standalone="no"?>
<!-- Created with Inkscape (http://www.inkscape.org/) -->

<svg
   xmlns:dc="http://purl.org/dc/elements/1.1/"
   xmlns:cc="http://creativecommons.org/ns#"
   xmlns:rdf="http://www.w3.org/1999/02/22-rdf-syntax-ns#"
   xmlns:svg="http://www.w3.org/2000/svg"
   xmlns="http://www.w3.org/2000/svg"
   version="1.1"
   width="98.135002"
   height="35.944809"
   id="svg6417">
  <defs
     id="defs6419">
    <clipPath
       id="clipPath1704">
      <path
         d="m 0,11338.58 11338.58,0 L 11338.58,0 0,0 0,11338.58 z"
         id="path1706" />
    </clipPath>
    <clipPath
       id="clipPath1712">
      <path
         d="m 4608.28,3999.95 64.2,0 0,-12.66 -64.2,0 0,12.66 z"
         id="path1714" />
    </clipPath>
    <clipPath
       id="clipPath1728">
      <path
         d="m 4608.99,3981.82 62.65,0 0,-5.66 -62.65,0 0,5.66 z"
         id="path1730" />
    </clipPath>
    <clipPath
       id="clipPath1744">
      <path
         d="m 4632.1,3997.14 19.17,0 0,-18.33 -19.17,0 0,18.33 z"
         id="path1746" />
    </clipPath>
    <clipPath
       id="clipPath1748">
      <path
         d="m 4632.096,3978.814 19.17,0 0,18.325 -19.17,0 0,-18.325 z"
         id="path1750" />
    </clipPath>
    <clipPath
       id="clipPath1704-3">
      <path
         d="m 0,11338.58 11338.58,0 L 11338.58,0 0,0 0,11338.58 z"
         id="path1706-9" />
    </clipPath>
    <clipPath
       id="clipPath1712-4">
      <path
         d="m 4608.28,3999.95 64.2,0 0,-12.66 -64.2,0 0,12.66 z"
         id="path1714-3" />
    </clipPath>
    <clipPath
       id="clipPath1728-6">
      <path
         d="m 4608.99,3981.82 62.65,0 0,-5.66 -62.65,0 0,5.66 z"
         id="path1730-7" />
    </clipPath>
    <clipPath
       id="clipPath1744-2">
      <path
         d="m 4632.1,3997.14 19.17,0 0,-18.33 -19.17,0 0,18.33 z"
         id="path1746-0" />
    </clipPath>
    <clipPath
       id="clipPath1748-0">
      <path
         d="m 4632.096,3978.814 19.17,0 0,18.325 -19.17,0 0,-18.325 z"
         id="path1750-0" />
    </clipPath>
    <clipPath
       id="clipPath1780">
      <path
         d="m 4676.01,3975.817 c 0,-2.271 17.58,-4.129 39.261,-4.129 l 0,0 c 21.675,0 39.25,1.858 39.25,4.129 l 0,0 c 0,2.291 -17.575,4.135 -39.25,4.135 l 0,0 c -21.681,0 -39.261,-1.844 -39.261,-4.135"
         id="path1782" />
    </clipPath>
    <mask
       id="mask1806">
      <g
         id="g1808">
        <g
           clip-path="url(#clipPath1788)"
           id="g1810">
          <path
             d="m 4676.012,3979.952 78.51,0 0,-8.264 -78.51,0 0,8.264 z"
             id="path1812"
             style="fill:#000000;fill-opacity:1;fill-rule:nonzero;stroke:none" />
          <g
             id="g1814">
            <g
               id="g1816" />
            <g
               id="g1818">
              <g
                 clip-path="url(#clipPath1792)"
                 id="g1820">
                <g
                   id="g1822">
                  <g
                     clip-path="url(#clipPath1796)"
                     id="g1824">
                    <g
                       id="g1826">
                      <g
                         id="g1828">
                        <path
                           d="m 4676.012,3979.955 78.51,0 0,-8.264 -78.51,0 0,8.264 z"
                           id="path1830"
                           style="fill:url(#radialGradient1800);stroke:none" />
                      </g>
                    </g>
                  </g>
                </g>
              </g>
            </g>
          </g>
        </g>
      </g>
    </mask>
    <clipPath
       id="clipPath1788">
      <path
         d="m 4676.01,3979.95 78.51,0 0,-8.26 -78.51,0 0,8.26 z"
         id="path1790" />
    </clipPath>
    <clipPath
       id="clipPath1792">
      <path
         d="m 4676.01,3979.95 78.51,0 0,-8.26 -78.51,0 0,8.26 z"
         id="path1794" />
    </clipPath>
    <clipPath
       id="clipPath1796">
      <path
         d="m 4676.012,3979.955 78.51,0 0,-8.264 -78.51,0 0,8.264 z"
         id="path1798" />
    </clipPath>
    <radialGradient
       cx="0"
       cy="0"
       r="1"
       fx="0"
       fy="0"
       id="radialGradient1800"
       gradientUnits="userSpaceOnUse"
       gradientTransform="matrix(39.239151,0,0,4.1338501,4715.3105,3975.8213)"
       spreadMethod="pad">
      <stop
         id="stop1802"
         style="stop-color:#d2d4d5;stop-opacity:1"
         offset="0" />
      <stop
         id="stop1804"
         style="stop-color:#373535;stop-opacity:1"
         offset="1" />
    </radialGradient>
    <clipPath
       id="clipPath1836">
      <path
         d="m 4676.01,3979.95 78.51,0 0,-8.26 -78.51,0 0,8.26 z"
         id="path1838" />
    </clipPath>
    <clipPath
       id="clipPath1840">
      <path
         d="m 4676.012,3979.952 78.51,0 0,-8.264 -78.51,0 0,8.264 z"
         id="path1842" />
    </clipPath>
    <radialGradient
       cx="0"
       cy="0"
       r="1"
       fx="0"
       fy="0"
       id="radialGradient1844"
       gradientUnits="userSpaceOnUse"
       gradientTransform="matrix(39.239151,0,0,4.1338501,4715.3105,3975.8174)"
       spreadMethod="pad">
      <stop
         id="stop1846"
         style="stop-color:#292929;stop-opacity:1"
         offset="0" />
      <stop
         id="stop1848"
         style="stop-color:#292929;stop-opacity:1"
         offset="1" />
    </radialGradient>
    <clipPath
       id="clipPath1704-2">
      <path
         d="m 0,11338.58 11338.58,0 L 11338.58,0 0,0 0,11338.58 z"
         id="path1706-5" />
    </clipPath>
    <clipPath
       id="clipPath1712-1">
      <path
         d="m 4608.28,3999.95 64.2,0 0,-12.66 -64.2,0 0,12.66 z"
         id="path1714-0" />
    </clipPath>
    <clipPath
       id="clipPath1728-9">
      <path
         d="m 4608.99,3981.82 62.65,0 0,-5.66 -62.65,0 0,5.66 z"
         id="path1730-77" />
    </clipPath>
    <clipPath
       id="clipPath1744-7">
      <path
         d="m 4632.1,3997.14 19.17,0 0,-18.33 -19.17,0 0,18.33 z"
         id="path1746-9" />
    </clipPath>
    <clipPath
       id="clipPath1748-1">
      <path
         d="m 4632.096,3978.814 19.17,0 0,18.325 -19.17,0 0,-18.325 z"
         id="path1750-4" />
    </clipPath>
    <clipPath
       id="clipPath1684">
      <path
         d="m 4610.416,3999.945 c -1.181,0 -2.14,-0.959 -2.14,-2.143 l 0,0 0,-20.394 c 0,-1.184 0.959,-2.143 2.14,-2.143 l 0,0 59.923,0 c 1.181,0 2.14,0.959 2.14,2.143 l 0,0 0,20.394 c 0,1.184 -0.959,2.143 -2.14,2.143 l 0,0 -59.923,0 z"
         id="path1686" />
    </clipPath>
    <linearGradient
       x1="0"
       y1="0"
       x2="1"
       y2="0"
       id="linearGradient1692"
       gradientUnits="userSpaceOnUse"
       gradientTransform="matrix(0,36.117493,36.117493,0,4640.377,3970.5273)"
       spreadMethod="pad">
      <stop
         id="stop1694"
         style="stop-color:#256395;stop-opacity:1"
         offset="0" />
      <stop
         id="stop1696"
         style="stop-color:#74bbd9;stop-opacity:1"
         offset="1" />
    </linearGradient>
  </defs>
  <metadata
     id="metadata6422">
    <rdf:RDF>
      <cc:Work
         rdf:about="">
        <dc:format>image/svg+xml</dc:format>
        <dc:type
           rdf:resource="http://purl.org/dc/dcmitype/StillImage" />
        <dc:title></dc:title>
      </cc:Work>
    </rdf:RDF>
  </metadata>
  <g
     transform="translate(-296.6468,-597.29419)"
     id="layer1">
    <g
       transform="matrix(1.25,0,0,-1.25,-5548.3682,5597.8515)"
       id="g1776">
      <g
         clip-path="url(#clipPath1780)"
         id="g1778">
        <g
           id="g1784">
          <g
             id="g1786" />
          <g
             mask="url(#mask1806)"
             id="g1832">
            <g
               id="g1834" />
            <g
               id="g1850">
              <g
                 clip-path="url(#clipPath1836)"
                 id="g1852">
                <g
                   id="g1854">
                  <g
                     clip-path="url(#clipPath1840)"
                     id="g1856">
                    <g
                       id="g1858">
                      <g
                         id="g1860">
                        <path
                           d="m 4676.012,3979.952 78.51,0 0,-8.264 -78.51,0 0,8.264 z"
                           id="path1862"
                           style="fill:url(#radialGradient1844);stroke:none" />
                      </g>
                    </g>
                  </g>
                </g>
              </g>
            </g>
          </g>
        </g>
      </g>
    </g>
    <g
       transform="matrix(1.25,0,0,-1.25,-5468.6862,5609.3683)"
       id="g1680">
      <g
         transform="translate(12,9.7142857)"
         clip-path="url(#clipPath1684)"
         id="g1682">
        <g
           id="g1688">
          <g
             id="g1690">
            <path
               d="m 4610.416,3999.945 c -1.181,0 -2.14,-0.959 -2.14,-2.143 l 0,0 0,-20.394 c 0,-1.184 0.959,-2.143 2.14,-2.143 l 0,0 59.923,0 c 1.181,0 2.14,0.959 2.14,2.143 l 0,0 0,20.394 c 0,1.184 -0.959,2.143 -2.14,2.143 l 0,0 -59.923,0 z"
               id="path1698"
               style="fill:url(#linearGradient1692);stroke:none" />
          </g>
        </g>
      </g>
    </g>
    <g
       transform="matrix(1.25,0,0,-1.25,-5454.7597,5598.1442)"
       id="g1700">
      <g
         clip-path="url(#clipPath1704-2)"
         id="g1702">
        <g
           id="g1708">
          <g
             id="g1710" />
          <g
             id="g1716">
            <g
               clip-path="url(#clipPath1712-1)"
               id="g1718"
               style="opacity:0.19999701">
              <g
                 transform="translate(4608.2754,3989.332)"
                 id="g1720">
                <path
                   d="m 0,0 c 3.418,-1.284 47.23,-2.047 51.887,-2.047 4.633,0 8.902,0.759 12.316,2.026 l 0,8.493 c 0,1.181 -0.959,2.141 -2.14,2.141 l -59.922,0 C 0.959,10.613 0,9.653 0,8.472 L 0,0 z"
                   id="path1722"
                   style="fill:#ffffff;fill-opacity:1;fill-rule:nonzero;stroke:none" />
              </g>
            </g>
          </g>
        </g>
        <g
           id="g1724">
          <g
             id="g1726" />
          <g
             id="g1732">
            <g
               clip-path="url(#clipPath1728-9)"
               id="g1734"
               style="opacity:0.19999701">
              <g
                 transform="translate(4608.9883,3980.1084)"
                 id="g1736">
                <path
                   d="m 0,0 c 0,0.942 0.764,1.715 1.71,1.715 l 59.231,0 c 0.944,0 1.714,-0.773 1.714,-1.715 l 0,-2.231 c 0,-0.945 -0.77,-1.714 -1.714,-1.714 l -59.231,0 C 0.764,-3.945 0,-3.176 0,-2.231 L 0,0 z"
                   id="path1738"
                   style="fill:#ffffff;fill-opacity:1;fill-rule:nonzero;stroke:none" />
              </g>
            </g>
          </g>
        </g>
        <g
           id="g1740">
          <g
             id="g1742" />
          <g
             id="g1752">
            <g
               clip-path="url(#clipPath1744-7)"
               id="g1754"
               style="opacity:0.5">
              <g
                 id="g1756">
                <g
                   clip-path="url(#clipPath1748-1)"
                   id="g1758">
                  <g
                     transform="translate(4634.3945,3992.8682)"
                     id="g1760">
                    <path
                       d="M 0,0 C 1.434,0 2.324,0.949 2.324,2.137 2.3,3.351 1.434,4.272 0.027,4.272 -1.377,4.272 -2.299,3.351 -2.299,2.137 -2.299,0.949 -1.404,0 -0.026,0 L 0,0 z m 2.053,-1.688 -4.109,0 0,-12.365 4.109,0 0,12.365 z"
                       id="path1762"
                       style="fill:#292929;fill-opacity:1;fill-rule:evenodd;stroke:none" />
                  </g>
                  <g
                     transform="translate(4638.7227,3978.8184)"
                     id="g1764">
                    <path
                       d="m 0,0 4.109,0 0,6.905 c 0,0.368 0.028,0.739 0.136,1.001 0.295,0.739 0.974,1.504 2.109,1.504 1.49,0 2.082,-1.136 2.082,-2.798 l 0,-6.612 4.107,0 0,7.087 c 0,3.799 -2.025,5.563 -4.73,5.563 -2.217,0 -3.19,-1.238 -3.73,-2.08 l 0.026,0 0,1.792 -4.109,0 C 0.054,11.203 0,0 0,0"
                       id="path1766"
                       style="fill:#292929;fill-opacity:1;fill-rule:evenodd;stroke:none" />
                  </g>
                </g>
              </g>
            </g>
          </g>
        </g>
        <g
           transform="translate(4633.8301,3993.4316)"
           id="g1768">
          <path
             d="M 0,0 C 1.434,0 2.326,0.95 2.326,2.136 2.299,3.352 1.434,4.273 0.027,4.273 -1.376,4.273 -2.295,3.352 -2.295,2.136 -2.295,0.95 -1.406,0 -0.025,0 L 0,0 z m 2.057,-1.688 -4.111,0 0,-12.361 4.111,0 0,12.361 z"
             id="path1770"
             style="fill:#ffffff;fill-opacity:1;fill-rule:evenodd;stroke:none" />
        </g>
        <g
           transform="translate(4638.1592,3979.3828)"
           id="g1772">
          <path
             d="m 0,0 4.109,0 0,6.902 c 0,0.37 0.028,0.741 0.135,1.001 0.296,0.741 0.974,1.505 2.107,1.505 1.49,0 2.084,-1.133 2.084,-2.797 l 0,-6.611 4.109,0 0,7.089 c 0,3.796 -2.028,5.564 -4.731,5.564 -2.216,0 -3.19,-1.242 -3.731,-2.085 l 0.027,0 0,1.793 -4.109,0 C 0.052,11.202 0,0 0,0"
             id="path1774"
             style="fill:#ffffff;fill-opacity:1;fill-rule:evenodd;stroke:none" />
        </g>
      </g>
    </g>
  </g>
</svg>
