<?xml version="1.0" encoding="UTF-8" standalone="no"?>
<!-- Created with Inkscape (http://www.inkscape.org/) -->

<svg
   xmlns:dc="http://purl.org/dc/elements/1.1/"
   xmlns:cc="http://creativecommons.org/ns#"
   xmlns:rdf="http://www.w3.org/1999/02/22-rdf-syntax-ns#"
   xmlns:svg="http://www.w3.org/2000/svg"
   xmlns="http://www.w3.org/2000/svg"
   version="1.1"
   width="19.940784"
   height="19.926563"
   id="svg4215">
  <defs
     id="defs4217" />
  <metadata
     id="metadata4220">
    <rdf:RDF>
      <cc:Work
         rdf:about="">
        <dc:format>image/svg+xml</dc:format>
        <dc:type
           rdf:resource="http://purl.org/dc/dcmitype/StillImage" />
        <dc:title></dc:title>
      </cc:Work>
    </rdf:RDF>
  </metadata>
  <g
     transform="translate(-672.88675,-579.54176)"
     id="layer1">
    <g
       transform="matrix(1.25,0,0,-1.25,684.93816,591.62301)"
       id="g430">
      <path
         d="m 0,0 c -0.888,-0.882 -2.066,-1.367 -3.318,-1.367 l -0.03,0 c -2.597,0.016 -4.697,2.142 -4.68,4.74 0.015,2.581 2.128,4.679 4.708,4.679 l 0.031,0 C -2.03,8.043 -0.85,7.548 0.033,6.652 0.918,5.756 1.398,4.57 1.392,3.312 1.384,2.059 0.888,0.884 0,0 m 6.094,-3.769 -0.097,0.095 0.002,10e-4 -3.847,3.846 c 0.534,0.92 0.844,1.989 0.852,3.129 0.021,3.492 -2.791,6.341 -6.283,6.363 l -0.041,0 c -3.473,0 -6.299,-2.805 -6.321,-6.282 -0.022,-3.493 2.791,-6.341 6.283,-6.363 l 0.04,0 c 1.161,0 2.249,0.315 3.184,0.861 l 3.843,-3.843 0.098,-0.096 c 0.288,-0.291 0.759,-0.291 1.052,0 l 1.235,1.236 c 0.29,0.29 0.29,0.761 0,1.053"
         id="path432"
         style="fill:#f04d40;fill-opacity:1;fill-rule:nonzero;stroke:none" />
    </g>
  </g>
</svg>
