<?xml version="1.0" encoding="UTF-8" standalone="no"?>
<!-- Created with Inkscape (http://www.inkscape.org/) -->

<svg
   xmlns:dc="http://purl.org/dc/elements/1.1/"
   xmlns:cc="http://creativecommons.org/ns#"
   xmlns:rdf="http://www.w3.org/1999/02/22-rdf-syntax-ns#"
   xmlns:svg="http://www.w3.org/2000/svg"
   xmlns="http://www.w3.org/2000/svg"
   version="1.1"
   width="43.8125"
   height="43.8125"
   id="svg5529">
  <defs
     id="defs5531" />
  <metadata
     id="metadata5534">
    <rdf:RDF>
      <cc:Work
         rdf:about="">
        <dc:format>image/svg+xml</dc:format>
        <dc:type
           rdf:resource="http://purl.org/dc/dcmitype/StillImage" />
        <dc:title></dc:title>
      </cc:Work>
    </rdf:RDF>
  </metadata>
  <g
     transform="translate(-340.95089,-607.59879)"
     id="layer1">
    <g
       transform="matrix(1.25,0,0,-1.25,384.76339,629.50504)"
       id="g160">
      <path
         d="m 0,0 c 0,-9.679 -7.846,-17.525 -17.524,-17.525 -9.68,0 -17.526,7.846 -17.526,17.525 0,9.679 7.846,17.525 17.526,17.525 C -7.846,17.525 0,9.679 0,0"
         id="path162"
         style="fill:#58c1c9;fill-opacity:1;fill-rule:nonzero;stroke:none" />
    </g>
    <g
       transform="matrix(1.25,0,0,-1.25,374.28359,627.85764)"
       id="g164">
      <path
         d="m 0,0 c 0,-3.228 -0.934,-5.845 -2.084,-5.845 -1.154,0 -2.086,2.617 -2.086,5.845 0,3.229 0.932,5.846 2.086,5.846 C -0.934,5.846 0,3.229 0,0"
         id="path166"
         style="fill:#ffffff;fill-opacity:1;fill-rule:nonzero;stroke:none" />
    </g>
    <g
       transform="matrix(1.25,0,0,-1.25,372.70159,627.66484)"
       id="g168">
      <path
         d="m 0,0 c 0,-1.312 -0.344,-2.374 -0.764,-2.374 -0.424,0 -0.763,1.062 -0.763,2.374 0,1.31 0.339,2.373 0.763,2.373 C -0.344,2.373 0,1.31 0,0"
         id="path170"
         style="fill:#58c1c9;fill-opacity:1;fill-rule:nonzero;stroke:none" />
    </g>
    <g
       transform="matrix(1.25,0,0,-1.25,350.14419,630.16114)"
       id="g194">
      <path
         d="m 0,0 c 5.437,-1.157 16.263,-4.278 16.263,-4.278 -6.265,6.109 0,12.652 0,12.652 0,0 -6.263,-4.436 -16.288,-6.352 C -0.19,1.991 -0.432,0.092 0,0"
         id="path196"
         style="fill:#ffffff;fill-opacity:1;fill-rule:nonzero;stroke:none" />
    </g>
    <g
       transform="matrix(1.25,0,0,-1.25,360.47509,640.83794)"
       id="g198">
      <path
         d="m 0,0 c 0,-0.53 -0.723,-0.96 -1.614,-0.96 -0.895,0 -1.618,0.43 -1.618,0.96 l 0,9.284 c 0,0.53 0.723,0.961 1.618,0.961 C -0.723,10.245 0,9.814 0,9.284 L 0,0 z"
         id="path200"
         style="fill:#ffffff;fill-opacity:1;fill-rule:nonzero;stroke:none" />
    </g>
  </g>
</svg>
