<?xml version="1.0" encoding="UTF-8" standalone="no"?>
<!-- Created with Inkscape (http://www.inkscape.org/) -->

<svg
   xmlns:dc="http://purl.org/dc/elements/1.1/"
   xmlns:cc="http://creativecommons.org/ns#"
   xmlns:rdf="http://www.w3.org/1999/02/22-rdf-syntax-ns#"
   xmlns:svg="http://www.w3.org/2000/svg"
   xmlns="http://www.w3.org/2000/svg"
   xmlns:sodipodi="http://sodipodi.sourceforge.net/DTD/sodipodi-0.dtd"
   xmlns:inkscape="http://www.inkscape.org/namespaces/inkscape"
   width="33.75"
   height="33.75"
   id="svg6674"
   version="1.1"
   inkscape:version="0.48.4 r9939"
   sodipodi:docname="New document 24">
  <defs
     id="defs6676" />
  <sodipodi:namedview
     id="base"
     pagecolor="#ffffff"
     bordercolor="#666666"
     borderopacity="1.0"
     inkscape:pageopacity="0.0"
     inkscape:pageshadow="2"
     inkscape:zoom="2.8"
     inkscape:cx="31.137607"
     inkscape:cy="-1.2988911"
     inkscape:document-units="px"
     inkscape:current-layer="layer1"
     showgrid="false"
     fit-margin-top="0"
     fit-margin-left="0"
     fit-margin-right="0"
     fit-margin-bottom="0"
     showborder="false"
     inkscape:showpageshadow="false"
     inkscape:window-width="513"
     inkscape:window-height="422"
     inkscape:window-x="424"
     inkscape:window-y="314"
     inkscape:window-maximized="0" />
  <metadata
     id="metadata6679">
    <rdf:RDF>
      <cc:Work
         rdf:about="">
        <dc:format>image/svg+xml</dc:format>
        <dc:type
           rdf:resource="http://purl.org/dc/dcmitype/StillImage" />
        <dc:title></dc:title>
      </cc:Work>
    </rdf:RDF>
  </metadata>
  <g
     inkscape:label="Layer 1"
     inkscape:groupmode="layer"
     id="layer1"
     transform="translate(-262.93413,-365.7573)">
    <g
       id="g1550"
       transform="matrix(1.25,0,0,-1.25,296.05913,382.6323)">
      <path
         d="m 0,0 c 0,-7.176 -5.819,-12.998 -12.997,-12.998 -7.179,0 -12.998,5.822 -12.998,12.998 0,7.184 5.819,13 12.998,13 C -5.819,13 0,7.184 0,0 z"
         style="fill:none;stroke:#ffffff;stroke-width:1.01300001;stroke-linecap:butt;stroke-linejoin:miter;stroke-miterlimit:10;stroke-opacity:1;stroke-dasharray:none"
         id="path1552"
         inkscape:connector-curvature="0" />
    </g>
    <g
       id="g1554"
       transform="matrix(1.25,0,0,-1.25,285.44139,375.8012)">
      <path
         d="M 0,0 C -1.723,0.813 -3.78,0.073 -4.591,-1.65 -4.648,-1.771 -4.697,-1.922 -4.74,-2.096 -4.783,-1.922 -4.832,-1.771 -4.889,-1.65 -5.701,0.073 -7.757,0.813 -9.48,0 c -1.725,-0.813 -2.463,-2.867 -1.651,-4.592 0.812,-1.724 6.39,-6.666 6.39,-6.666 0,0 10e-4,0.006 10e-4,0.016 0.001,-0.01 0.002,-0.016 0.002,-0.016 0,0 5.578,4.942 6.389,6.666 C 2.463,-2.867 1.725,-0.813 0,0"
         style="fill:#ffffff;fill-opacity:1;fill-rule:nonzero;stroke:none"
         id="path1556"
         inkscape:connector-curvature="0" />
    </g>
  </g>
</svg>
