<?xml version="1.0" encoding="UTF-8" standalone="no"?>
<!-- Created with Inkscape (http://www.inkscape.org/) -->

<svg
   xmlns:dc="http://purl.org/dc/elements/1.1/"
   xmlns:cc="http://creativecommons.org/ns#"
   xmlns:rdf="http://www.w3.org/1999/02/22-rdf-syntax-ns#"
   xmlns:svg="http://www.w3.org/2000/svg"
   xmlns="http://www.w3.org/2000/svg"
   xmlns:sodipodi="http://sodipodi.sourceforge.net/DTD/sodipodi-0.dtd"
   xmlns:inkscape="http://www.inkscape.org/namespaces/inkscape"
   width="104.1675"
   height="75.197502"
   id="svg6493"
   version="1.1"
   inkscape:version="0.48.4 r9939"
   sodipodi:docname="New document 16">
  <defs
     id="defs6495" />
  <sodipodi:namedview
     id="base"
     pagecolor="#ffffff"
     bordercolor="#666666"
     borderopacity="1.0"
     inkscape:pageopacity="0.0"
     inkscape:pageshadow="2"
     inkscape:zoom="1.979899"
     inkscape:cx="67.852006"
     inkscape:cy="44.947192"
     inkscape:document-units="px"
     inkscape:current-layer="layer1"
     showgrid="false"
     fit-margin-top="0"
     fit-margin-left="0"
     fit-margin-right="0"
     fit-margin-bottom="0"
     showborder="false"
     inkscape:showpageshadow="false"
     inkscape:window-width="513"
     inkscape:window-height="422"
     inkscape:window-x="61"
     inkscape:window-y="148"
     inkscape:window-maximized="0" />
  <metadata
     id="metadata6498">
    <rdf:RDF>
      <cc:Work
         rdf:about="">
        <dc:format>image/svg+xml</dc:format>
        <dc:type
           rdf:resource="http://purl.org/dc/dcmitype/StillImage" />
        <dc:title></dc:title>
      </cc:Work>
    </rdf:RDF>
  </metadata>
  <g
     inkscape:label="Layer 1"
     inkscape:groupmode="layer"
     id="layer1"
     transform="translate(-310.77339,-517.62058)">
    <g
       id="g1574"
       transform="matrix(1.25,0,0,-1.25,310.77339,517.62058)">
      <path
         d="M 0,0 83.334,-60.158 83.334,0 0,0 z"
         style="fill:#f04d40;fill-opacity:1;fill-rule:nonzero;stroke:none"
         id="path1576"
         inkscape:connector-curvature="0" />
    </g>
    <g
       id="g1578"
       transform="matrix(1.25,0,0,-1.25,399.86759,540.93361)">
      <path
         d="m 0,0 c 0,-6.888 -5.582,-12.466 -12.465,-12.466 -6.885,0 -12.466,5.578 -12.466,12.466 0,6.886 5.581,12.466 12.466,12.466 C -5.582,12.466 0,6.886 0,0"
         style="fill:#ffffff;fill-opacity:1;fill-rule:evenodd;stroke:none"
         id="path1580"
         inkscape:connector-curvature="0" />
    </g>
    <g
       id="g1582"
       transform="matrix(1.25,0,0,-1.25,382.66314,545.28953)">
      <path
         d="m 0,0 -1.521,0.027 c 0,0 0.655,5.141 -0.79,8.187 0,0 1.129,0.315 1.995,0.263 0,0 0.947,-4.803 0.316,-8.477 M 7.542,-0.215 C 6.788,-0.141 6.272,-0.07 5.637,-0.003 5.567,0.002 5.379,0.055 5.346,0.338 5.076,3.311 5.213,6.237 6.385,8.994 6.131,9.09 5.914,9.195 5.682,9.258 3.105,9.945 0.489,9.857 -2.149,9.535 -2.643,9.475 -3.959,9.178 -3.885,8.925 -3.09,6.205 -2.375,3.138 -2.818,0.326 -2.857,0.063 -2.961,-0.01 -3.209,-0.029 c -0.59,-0.053 -1.183,-0.123 -1.768,-0.227 -0.376,-0.04 -0.25,-0.646 -0.108,-0.705 0.756,-0.325 7.219,-1.418 12.661,0.016 0.279,0.076 0.385,0.693 -0.034,0.73"
         style="fill:#f04d40;fill-opacity:1;fill-rule:evenodd;stroke:none"
         id="path1584"
         inkscape:connector-curvature="0" />
    </g>
  </g>
</svg>
