<?xml version="1.0" encoding="UTF-8" standalone="no"?>
<!-- Created with Inkscape (http://www.inkscape.org/) -->

<svg
   xmlns:dc="http://purl.org/dc/elements/1.1/"
   xmlns:cc="http://creativecommons.org/ns#"
   xmlns:rdf="http://www.w3.org/1999/02/22-rdf-syntax-ns#"
   xmlns:svg="http://www.w3.org/2000/svg"
   xmlns="http://www.w3.org/2000/svg"
   xmlns:sodipodi="http://sodipodi.sourceforge.net/DTD/sodipodi-0.dtd"
   xmlns:inkscape="http://www.inkscape.org/namespaces/inkscape"
   width="94.099998"
   height="76.154999"
   id="svg5419"
   version="1.1"
   inkscape:version="0.48.4 r9939"
   sodipodi:docname="New document 2">
  <defs
     id="defs5421" />
  <sodipodi:namedview
     id="base"
     pagecolor="#ffffff"
     bordercolor="#666666"
     borderopacity="1.0"
     inkscape:pageopacity="0.0"
     inkscape:pageshadow="2"
     inkscape:zoom="2.8"
     inkscape:cx="10.180642"
     inkscape:cy="12.011869"
     inkscape:document-units="px"
     inkscape:current-layer="layer1"
     showgrid="false"
     fit-margin-top="0"
     fit-margin-left="0"
     fit-margin-right="0"
     fit-margin-bottom="0"
     showborder="false"
     inkscape:showpageshadow="false"
     inkscape:window-width="513"
     inkscape:window-height="422"
     inkscape:window-x="0"
     inkscape:window-y="0"
     inkscape:window-maximized="0" />
  <metadata
     id="metadata5424">
    <rdf:RDF>
      <cc:Work
         rdf:about="">
        <dc:format>image/svg+xml</dc:format>
        <dc:type
           rdf:resource="http://purl.org/dc/dcmitype/StillImage" />
        <dc:title></dc:title>
      </cc:Work>
    </rdf:RDF>
  </metadata>
  <g
     inkscape:label="Layer 1"
     inkscape:groupmode="layer"
     id="layer1"
     transform="translate(-472.95,-559.99897)">
    <g
       id="g2254"
       transform="matrix(1.25,0,0,-1.25,567.05,559.99897)">
      <path
         inkscape:connector-curvature="0"
         d="M 0,0 -75.28,-60.924 -75.28,0 0,0 z"
         style="fill:#f47736;fill-opacity:1;fill-rule:nonzero;stroke:none"
         id="path2256" />
    </g>
    <g
       id="g2364"
       transform="matrix(1.25,0,0,-1.25,511.31332,583.98756)">
      <path
         inkscape:connector-curvature="0"
         d="m 0,0 c -0.054,0.167 -0.211,0.281 -0.388,0.281 l -7.41,0 -2.294,7.046 c -0.054,0.167 -0.211,0.28 -0.387,0.28 -0.176,0.002 -0.333,-0.113 -0.388,-0.28 l -2.306,-7.046 -7.398,0 c -0.177,0 -0.333,-0.114 -0.387,-0.281 -0.055,-0.168 0.005,-0.352 0.146,-0.455 l 5.987,-4.361 -2.306,-7.084 c -0.055,-0.168 0.005,-0.352 0.147,-0.457 0.143,-0.102 0.337,-0.102 0.48,0 l 6.025,4.375 6.012,-4.375 c 0.071,-0.051 0.155,-0.078 0.239,-0.078 0.084,0 0.168,0.027 0.24,0.078 0.143,0.105 0.203,0.289 0.149,0.457 l -2.307,7.084 5.998,4.361 C -0.005,-0.353 0.054,-0.168 0,0"
         style="fill:#fffde9;fill-opacity:1;fill-rule:nonzero;stroke:none"
         id="path2366" />
    </g>
  </g>
</svg>
