<?xml version="1.0" encoding="UTF-8" standalone="no"?>
<!-- Created with Inkscape (http://www.inkscape.org/) -->

<svg
   xmlns:dc="http://purl.org/dc/elements/1.1/"
   xmlns:cc="http://creativecommons.org/ns#"
   xmlns:rdf="http://www.w3.org/1999/02/22-rdf-syntax-ns#"
   xmlns:svg="http://www.w3.org/2000/svg"
   xmlns="http://www.w3.org/2000/svg"
   xmlns:sodipodi="http://sodipodi.sourceforge.net/DTD/sodipodi-0.dtd"
   xmlns:inkscape="http://www.inkscape.org/namespaces/inkscape"
   width="168.75125"
   height="33.752499"
   id="svg6279"
   version="1.1"
   inkscape:version="0.48.4 r9939"
   sodipodi:docname="New document 7">
  <defs
     id="defs6281">
    <clipPath
       clipPathUnits="userSpaceOnUse"
       id="clipPath2372">
      <path
         inkscape:connector-curvature="0"
         d="m 5395.833,5934.581 c -1.565,0 -2.834,-1.269 -2.834,-2.834 l 0,0 0,-21.334 c 0,-1.562 1.269,-2.834 2.834,-2.834 l 0,0 129.333,0 c 1.565,0 2.834,1.272 2.834,2.834 l 0,0 0,21.334 c 0,1.565 -1.269,2.834 -2.834,2.834 l 0,0 -129.333,0 z"
         id="path2374" />
    </clipPath>
    <linearGradient
       x1="0"
       y1="0"
       x2="1"
       y2="0"
       gradientUnits="userSpaceOnUse"
       gradientTransform="matrix(0,46.999985,46.999985,0,5460.5,5922.5801)"
       spreadMethod="pad"
       id="linearGradient2380">
      <stop
         style="stop-opacity:1;stop-color:#ffffff"
         offset="0"
         id="stop2382" />
      <stop
         style="stop-opacity:1;stop-color:#494849"
         offset="1"
         id="stop2384" />
    </linearGradient>
  </defs>
  <sodipodi:namedview
     id="base"
     pagecolor="#ffffff"
     bordercolor="#666666"
     borderopacity="1.0"
     inkscape:pageopacity="0.0"
     inkscape:pageshadow="2"
     inkscape:zoom="0.35"
     inkscape:cx="84.37565"
     inkscape:cy="16.876267"
     inkscape:document-units="px"
     inkscape:current-layer="layer1"
     showgrid="false"
     fit-margin-top="0"
     fit-margin-left="0"
     fit-margin-right="0"
     fit-margin-bottom="0"
     showborder="false"
     inkscape:showpageshadow="false"
     inkscape:window-width="513"
     inkscape:window-height="422"
     inkscape:window-x="424"
     inkscape:window-y="314"
     inkscape:window-maximized="0" />
  <metadata
     id="metadata6284">
    <rdf:RDF>
      <cc:Work
         rdf:about="">
        <dc:format>image/svg+xml</dc:format>
        <dc:type
           rdf:resource="http://purl.org/dc/dcmitype/StillImage" />
        <dc:title></dc:title>
      </cc:Work>
    </rdf:RDF>
  </metadata>
  <g
     inkscape:label="Layer 1"
     inkscape:groupmode="layer"
     id="layer1"
     transform="translate(-290.62435,-515.48595)">
    <g
       transform="matrix(1.25,0,0,-1.25,-6450.6244,7933.7122)"
       id="g2368">
      <g
         id="g2370"
         clip-path="url(#clipPath2372)">
        <g
           id="g2376">
          <g
             id="g2378">
            <path
               inkscape:connector-curvature="0"
               d="m 5395.833,5934.581 c -1.565,0 -2.834,-1.269 -2.834,-2.834 l 0,0 0,-21.334 c 0,-1.562 1.269,-2.834 2.834,-2.834 l 0,0 129.333,0 c 1.565,0 2.834,1.272 2.834,2.834 l 0,0 0,21.334 c 0,1.565 -1.269,2.834 -2.834,2.834 l 0,0 -129.333,0 z"
               style="fill:url(#linearGradient2380);stroke:none"
               id="path2386" />
          </g>
        </g>
      </g>
    </g>
  </g>
</svg>
