<?xml version="1.0" encoding="UTF-8" standalone="no"?>
<!-- Created with Inkscape (http://www.inkscape.org/) -->

<svg
   xmlns:dc="http://purl.org/dc/elements/1.1/"
   xmlns:cc="http://creativecommons.org/ns#"
   xmlns:rdf="http://www.w3.org/1999/02/22-rdf-syntax-ns#"
   xmlns:svg="http://www.w3.org/2000/svg"
   xmlns="http://www.w3.org/2000/svg"
   xmlns:sodipodi="http://sodipodi.sourceforge.net/DTD/sodipodi-0.dtd"
   xmlns:inkscape="http://www.inkscape.org/namespaces/inkscape"
   width="210.15988"
   height="50.130001"
   id="svg5451"
   version="1.1"
   inkscape:version="0.48.4 r9939"
   sodipodi:docname="New document 3">
  <defs
     id="defs5453">
    <clipPath
       clipPathUnits="userSpaceOnUse"
       id="clipPath766">
      <path
         inkscape:connector-curvature="0"
         d="m 0,11338.58 11338.58,0 L 11338.58,0 0,0 0,11338.58 z"
         id="path768" />
    </clipPath>
  </defs>
  <sodipodi:namedview
     id="base"
     pagecolor="#ffffff"
     bordercolor="#666666"
     borderopacity="1.0"
     inkscape:pageopacity="0.0"
     inkscape:pageshadow="2"
     inkscape:zoom="0.35"
     inkscape:cx="-131.34867"
     inkscape:cy="165.06497"
     inkscape:document-units="px"
     inkscape:current-layer="layer1"
     showgrid="false"
     fit-margin-top="0"
     fit-margin-left="0"
     fit-margin-right="0"
     fit-margin-bottom="0"
     showborder="false"
     inkscape:showpageshadow="false"
     inkscape:window-width="1366"
     inkscape:window-height="741"
     inkscape:window-x="0"
     inkscape:window-y="0"
     inkscape:window-maximized="1" />
  <metadata
     id="metadata5456">
    <rdf:RDF>
      <cc:Work
         rdf:about="">
        <dc:format>image/svg+xml</dc:format>
        <dc:type
           rdf:resource="http://purl.org/dc/dcmitype/StillImage" />
        <dc:title></dc:title>
      </cc:Work>
    </rdf:RDF>
  </metadata>
  <g
     inkscape:label="Layer 1"
     inkscape:groupmode="layer"
     id="layer1"
     transform="translate(-506.34867,-647.29715)">
    <g
       id="g762"
       transform="matrix(1.25,0,0,-1.25,-6106.3642,6019.1099)">
      <g
         id="g764"
         clip-path="url(#clipPath766)">
        <g
           id="g770"
           transform="translate(5406.1494,4283.4346)">
          <path
             d="m 0,0 c -1.211,0 -2.299,-0.277 -3.262,-0.834 -0.963,-0.555 -1.619,-1.52 -1.965,-2.895 -0.347,-1.375 -0.52,-3.773 -0.52,-7.191 0,-2.365 0.098,-4.25 0.297,-5.658 0.197,-1.408 0.701,-2.574 1.511,-3.496 0.809,-0.926 2.078,-1.387 3.808,-1.387 1.056,0 2.116,0.281 3.179,0.842 1.062,0.56 1.757,1.662 2.081,3.308 0.325,1.641 0.487,4.17 0.487,7.579 0,3.089 -0.201,5.222 -0.603,6.4 C 4.61,-2.156 3.967,-1.307 3.082,-0.785 2.193,-0.262 1.167,0 0,0 m -0.066,-22.303 c -2.863,0 -5.293,1.199 -7.292,3.596 -2,2.398 -2.998,4.961 -2.998,7.686 0,3.279 1.048,6.076 3.146,8.39 2.099,2.315 4.533,3.471 7.309,3.471 2.609,0 4.949,-1.176 7.021,-3.528 2.07,-2.355 3.105,-5.027 3.105,-8.017 0,-3.08 -1.037,-5.781 -3.115,-8.109 -2.074,-2.325 -4.467,-3.489 -7.176,-3.489"
             style="fill:#ffffff;fill-opacity:1;fill-rule:nonzero;stroke:none"
             id="path772"
             inkscape:connector-curvature="0" />
        </g>
        <g
           id="g774"
           transform="translate(5430.0342,4272.7959)">
          <path
             d="m 0,0 -3.007,0 0,-10.311 3.107,0 c 1.156,0 2.078,0.088 2.765,0.264 0.691,0.176 1.276,0.647 1.76,1.41 0.484,0.764 0.727,1.965 0.727,3.604 0,1.748 -0.367,3.025 -1.098,3.828 C 3.521,-0.404 2.104,0 0,0 m 0.38,10.127 -3.387,0 0,-9.289 3.041,0 c 2.059,0 3.374,0.404 3.946,1.207 0.573,0.803 0.86,2.066 0.86,3.793 0,1.351 -0.188,2.336 -0.562,2.951 C 3.903,9.406 3.428,9.783 2.851,9.92 2.272,10.059 1.447,10.127 0.38,10.127 m -7.318,-20.438 0,20.438 -3.419,0 0,0.84 11.448,0 c 1.256,0 2.312,-0.063 3.171,-0.188 C 5.12,10.652 5.946,10.324 6.739,9.797 7.533,9.27 8.104,8.617 8.449,7.842 8.797,7.066 8.97,6.332 8.97,5.641 8.97,3.012 6.948,1.291 2.907,0.479 l 0,-0.084 c 4.561,-0.739 6.839,-2.629 6.839,-5.674 0,-0.748 -0.204,-1.537 -0.61,-2.367 C 8.727,-8.477 8.078,-9.193 7.186,-9.799 6.293,-10.404 5.382,-10.781 4.453,-10.93 3.521,-11.078 2.351,-11.152 0.941,-11.152 l -11.298,0 0,0.841 3.419,0 z"
             style="fill:#ffffff;fill-opacity:1;fill-rule:nonzero;stroke:none"
             id="path776"
             inkscape:connector-curvature="0" />
        </g>
        <g
           id="g778"
           transform="translate(5456.9102,4284.0127)">
          <path
             d="m 0,0 0.1,-5.74 -0.779,0 c -1.1,3.439 -3.044,5.162 -5.831,5.162 -1.541,0 -2.739,-0.428 -3.593,-1.279 -0.853,-0.852 -1.278,-1.735 -1.278,-2.647 0,-0.848 0.355,-1.566 1.065,-2.16 0.711,-0.594 2.006,-1.055 3.89,-1.379 1.883,-0.324 3.317,-0.719 4.303,-1.187 0.984,-0.467 1.816,-1.247 2.494,-2.334 0.677,-1.09 1.017,-2.338 1.017,-3.745 0,-2.166 -0.71,-3.97 -2.123,-5.41 -1.417,-1.443 -3.169,-2.162 -5.261,-2.162 -1.707,0 -3.408,0.633 -5.106,1.899 l -1.551,-1.387 -0.579,0 0,6.185 0.711,0 c 0.649,-1.947 1.557,-3.41 2.724,-4.388 1.167,-0.979 2.446,-1.467 3.832,-1.467 1.377,0 2.641,0.455 3.791,1.361 1.15,0.907 1.728,2.053 1.728,3.44 0,1.164 -0.401,2.146 -1.199,2.943 -0.798,0.797 -2.09,1.348 -3.881,1.65 -1.789,0.303 -3.162,0.655 -4.12,1.057 -0.959,0.4 -1.781,1.098 -2.462,2.096 -0.683,0.994 -1.025,2.096 -1.025,3.304 0,1.674 0.594,3.165 1.783,4.481 1.19,1.312 2.804,1.969 4.84,1.969 1.706,0 3.298,-0.537 4.776,-1.616 0.407,0.385 0.758,0.836 1.055,1.354 L 0,0 z"
             style="fill:#ffffff;fill-opacity:1;fill-rule:nonzero;stroke:none"
             id="path780"
             inkscape:connector-curvature="0" />
        </g>
        <g
           id="g782"
           transform="translate(5379.0225,4297.4502)">
          <path
             d="m 0,0 12.814,0 0,-1.139 -3.799,0 0,-27.285 c 0,-2.599 -0.237,-4.633 -0.705,-6.096 -0.471,-1.462 -1.432,-2.759 -2.885,-3.888 -1.454,-1.129 -3.012,-1.696 -4.67,-1.696 -1.609,0 -2.998,0.495 -4.169,1.483 -1.172,0.988 -1.757,2.092 -1.757,3.31 0,0.743 0.219,1.364 0.656,1.86 0.438,0.498 0.959,0.748 1.563,0.748 0.592,0 1.082,-0.219 1.469,-0.656 0.384,-0.44 0.578,-0.987 0.578,-1.639 0,-0.477 -0.104,-0.914 -0.31,-1.316 -0.348,-0.401 -0.52,-0.75 -0.52,-1.045 0,-0.418 0.273,-0.791 0.819,-1.118 0.548,-0.326 1.144,-0.49 1.786,-0.49 1.106,0 1.978,0.416 2.615,1.25 0.637,0.832 0.955,2.865 0.955,6.106 l 0,30.472 -4.44,0 L 0,0 z"
             style="fill:#ffffff;fill-opacity:1;fill-rule:nonzero;stroke:none"
             id="path784"
             inkscape:connector-curvature="0" />
        </g>
        <g
           id="g786"
           transform="translate(5302.8223,4277.0752)">
          <path
             d="m 0,0 c 2.461,0 4.27,0.504 5.427,1.51 1.155,1.006 1.733,2.545 1.733,4.615 0,3.842 -2.252,5.764 -6.754,5.764 l -6.439,0 L -6.033,0 0,0 z m -1.666,-13.416 0,-1.893 -10.986,0 0,1.893 4.007,0 0,25.305 -4.007,0 0,1.89 13.463,0 c 6.034,0 9.05,-2.55 9.05,-7.654 C 9.861,3.992 9.299,2.32 8.173,1.105 7.048,-0.111 5.403,-0.869 3.243,-1.17 4.503,-1.35 5.486,-1.814 6.191,-2.564 6.896,-3.316 7.459,-4.426 7.88,-5.896 l 2.206,-7.52 2.477,0 0,-1.893 -4.502,0 -2.612,8.737 c -0.331,1.08 -0.706,1.929 -1.125,2.541 -0.423,0.617 -0.939,1.084 -1.553,1.398 -0.616,0.317 -1.352,0.518 -2.207,0.61 -0.856,0.087 -1.884,0.132 -3.085,0.132 l -3.512,0 0,-11.525 4.367,0 z"
             style="fill:#ffffff;fill-opacity:1;fill-rule:nonzero;stroke:none"
             id="path788"
             inkscape:connector-curvature="0" />
        </g>
        <g
           id="g790"
           transform="translate(5339.7891,4263.5674)">
          <path
             d="m 0,0 3.467,0 0,25.486 -3.467,0 0,1.801 5.853,0 0,-27.287 3.466,0 0,-1.801 L 0,-1.801 0,0 z"
             style="fill:#ffffff;fill-opacity:1;fill-rule:nonzero;stroke:none"
             id="path792"
             inkscape:connector-curvature="0" />
        </g>
        <g
           id="g794"
           transform="translate(5368.2432,4273.292)">
          <path
             d="M 0,0 C -0.18,2.463 -0.855,4.316 -2.026,5.564 -3.197,6.807 -4.817,7.43 -6.889,7.43 -8.84,7.43 -10.394,6.807 -11.549,5.564 -12.705,4.316 -13.433,2.463 -13.732,0 L 0,0 z m -13.732,-1.799 c 0.09,-2.73 0.756,-4.81 2.003,-6.238 1.245,-1.424 2.964,-2.135 5.155,-2.135 1.801,0 3.28,0.42 4.436,1.258 1.154,0.842 1.883,2.041 2.183,3.603 l 1.982,0 c -0.242,-2.101 -1.104,-3.753 -2.589,-4.953 -1.487,-1.201 -3.445,-1.8 -5.876,-1.8 -3.092,0 -5.501,0.937 -7.227,2.816 -1.726,1.873 -2.589,4.553 -2.589,8.035 0,1.621 0.226,3.084 0.675,4.389 0.451,1.306 1.096,2.41 1.937,3.312 0.839,0.899 1.846,1.596 3.016,2.09 1.171,0.498 2.477,0.744 3.918,0.744 2.851,0 5.102,-0.937 6.753,-2.814 1.651,-1.877 2.476,-4.526 2.476,-7.947 l 0,-0.36 -16.253,0 z"
             style="fill:#ffffff;fill-opacity:1;fill-rule:nonzero;stroke:none"
             id="path796"
             inkscape:connector-curvature="0" />
        </g>
        <g
           id="g798"
           transform="translate(5332.168,4278.6553)">
          <path
             d="m 0,0 c 0.063,-0.068 0.13,-0.131 0.191,-0.205 1.262,-1.516 1.891,-3.67 1.891,-6.461 0,-2.791 -0.629,-4.969 -1.891,-6.529 -1.259,-1.561 -2.956,-2.34 -5.087,-2.34 -2.132,0 -3.835,0.779 -5.112,2.34 -1.275,1.56 -1.912,3.738 -1.912,6.529 0,2.791 0.637,4.945 1.912,6.461 0.065,0.076 0.135,0.142 0.201,0.215 -0.944,0.133 -1.814,0.303 -2.588,0.506 -1.364,-1.819 -2.046,-4.227 -2.046,-7.229 0,-3.361 0.853,-5.986 2.566,-7.877 1.71,-1.892 4.036,-2.838 6.979,-2.838 2.941,0 5.259,0.946 6.958,2.838 1.695,1.891 2.542,4.516 2.542,7.877 0,2.994 -0.674,5.399 -2.019,7.215 C 1.811,0.303 0.942,0.133 0,0"
             style="fill:#ffffff;fill-opacity:1;fill-rule:nonzero;stroke:none"
             id="path800"
             inkscape:connector-curvature="0" />
        </g>
        <g
           id="g802"
           transform="translate(5325.2061,4283.0205)">
          <path
             d="m 0,0 -2.241,0.035 c 0,0 0.967,7.572 -1.158,12.055 0,0 1.66,0.463 2.935,0.387 0,0 1.391,-7.071 0.464,-12.477 M 11.103,-0.316 C 9.993,-0.207 9.232,-0.107 8.296,-0.008 8.194,0.004 7.918,0.076 7.87,0.494 7.471,4.871 7.672,9.18 9.396,13.238 9.025,13.379 8.702,13.535 8.363,13.623 4.57,14.635 0.722,14.506 -3.164,14.035 c -0.728,-0.09 -2.663,-0.527 -2.554,-0.902 1.17,-4.002 2.224,-8.516 1.57,-12.656 -0.061,-0.389 -0.211,-0.493 -0.581,-0.524 -0.868,-0.074 -1.737,-0.182 -2.596,-0.33 -0.556,-0.062 -0.371,-0.951 -0.161,-1.041 1.114,-0.475 10.628,-2.086 18.638,0.023 0.412,0.11 0.565,1.02 -0.049,1.079"
             style="fill:#ffffff;fill-opacity:1;fill-rule:evenodd;stroke:none"
             id="path804"
             inkscape:connector-curvature="0" />
        </g>
      </g>
    </g>
  </g>
</svg>
