<?xml version="1.0" encoding="UTF-8" standalone="no"?>
<!-- Created with Inkscape (http://www.inkscape.org/) -->

<svg
   xmlns:dc="http://purl.org/dc/elements/1.1/"
   xmlns:cc="http://creativecommons.org/ns#"
   xmlns:rdf="http://www.w3.org/1999/02/22-rdf-syntax-ns#"
   xmlns:svg="http://www.w3.org/2000/svg"
   xmlns="http://www.w3.org/2000/svg"
   xmlns:sodipodi="http://sodipodi.sourceforge.net/DTD/sodipodi-0.dtd"
   xmlns:inkscape="http://www.inkscape.org/namespaces/inkscape"
   width="267.70529"
   height="63.853748"
   id="svg4216"
   version="1.1"
   inkscape:version="0.48.4 r9939"
   sodipodi:docname="drawing.png">
  <defs
     id="defs4218" />
  <sodipodi:namedview
     id="base"
     pagecolor="#ffffff"
     bordercolor="#000000"
     borderopacity="1"
     inkscape:pageopacity="0"
     inkscape:pageshadow="2"
     inkscape:zoom="0.98994949"
     inkscape:cx="143.11669"
     inkscape:cy="8.5161873"
     inkscape:document-units="px"
     inkscape:current-layer="layer1"
     showgrid="false"
     inkscape:window-width="1366"
     inkscape:window-height="741"
     inkscape:window-x="0"
     inkscape:window-y="0"
     inkscape:window-maximized="1"
     fit-margin-top="0"
     fit-margin-left="0"
     fit-margin-right="0"
     fit-margin-bottom="0"
     inkscape:showpageshadow="false"
     showborder="false" />
  <metadata
     id="metadata4221">
    <rdf:RDF>
      <cc:Work
         rdf:about="">
        <dc:format>image/svg+xml</dc:format>
        <dc:type
           rdf:resource="http://purl.org/dc/dcmitype/StillImage" />
        <dc:title></dc:title>
      </cc:Work>
    </rdf:RDF>
  </metadata>
  <g
     inkscape:label="Layer 1"
     inkscape:groupmode="layer"
     id="layer1"
     transform="translate(-220.43306,-343.29245)">
    <g
       id="g1000"
       transform="matrix(1.25,0,0,-1.25,405.10316,365.60865)">
      <path
         d="M 0,0 C -1.543,0 -2.929,-0.354 -4.154,-1.062 -5.381,-1.768 -6.217,-2.999 -6.659,-4.749 -7.1,-6.5 -7.32,-9.554 -7.32,-13.911 c 0,-3.011 0.124,-5.414 0.377,-7.206 0.254,-1.794 0.894,-3.279 1.925,-4.455 1.032,-1.177 2.647,-1.765 4.852,-1.765 1.344,0 2.695,0.358 4.049,1.073 1.353,0.714 2.237,2.117 2.652,4.212 0.414,2.094 0.619,5.312 0.619,9.655 0,3.936 -0.256,6.653 -0.768,8.152 -0.511,1.499 -1.333,2.58 -2.46,3.246 C 2.795,-0.333 1.487,0 0,0 m -0.084,-28.409 c -3.646,0 -6.742,1.527 -9.289,4.581 -2.546,3.054 -3.818,6.317 -3.818,9.791 0,4.175 1.334,7.737 4.007,10.685 2.672,2.95 5.776,4.423 9.31,4.423 3.323,0 6.305,-1.499 8.944,-4.496 2.636,-2.998 3.953,-6.402 3.953,-10.211 0,-3.923 -1.32,-7.365 -3.965,-10.328 -2.643,-2.963 -5.691,-4.445 -9.142,-4.445"
         style="fill:#aaacae;fill-opacity:1;fill-rule:nonzero;stroke:none"
         id="path1002"
         inkscape:connector-curvature="0" />
    </g>
    <g
       id="g1004"
       transform="matrix(1.25,0,0,-1.25,443.13416,382.54905)">
      <path
         d="m 0,0 -3.83,0 0,-13.133 3.958,0 c 1.471,0 2.646,0.112 3.522,0.336 0.878,0.224 1.624,0.823 2.242,1.796 0.618,0.974 0.927,2.504 0.927,4.592 0,2.227 -0.467,3.851 -1.4,4.874 C 4.487,-0.512 2.68,0 0,0 m 0.484,12.9 -4.314,0 0,-11.829 3.876,0 c 2.62,0 4.295,0.511 5.026,1.534 0.729,1.023 1.093,2.634 1.093,4.832 0,1.723 -0.238,2.978 -0.714,3.761 C 4.974,11.984 4.367,12.462 3.63,12.638 2.894,12.813 1.845,12.9 0.484,12.9 m -9.319,-26.033 0,26.033 -4.356,0 0,1.072 14.581,0 c 1.598,0 2.947,-0.08 4.04,-0.242 1.094,-0.161 2.145,-0.577 3.156,-1.25 1.011,-0.672 1.737,-1.502 2.178,-2.49 0.442,-0.987 0.661,-1.923 0.661,-2.804 0,-3.349 -2.574,-5.54 -7.721,-6.577 l 0,-0.106 c 5.809,-0.939 8.71,-3.348 8.71,-7.228 0,-0.951 -0.259,-1.957 -0.775,-3.014 -0.523,-1.058 -1.349,-1.972 -2.486,-2.743 -1.136,-0.77 -2.297,-1.25 -3.481,-1.439 C 4.487,-14.11 2.995,-14.204 1.2,-14.204 l -14.391,0 0,1.071 4.356,0 z"
         style="fill:#aaacae;fill-opacity:1;fill-rule:nonzero;stroke:none"
         id="path1006"
         inkscape:connector-curvature="0" />
    </g>
    <g
       id="g1008"
       transform="matrix(1.25,0,0,-1.25,485.92836,364.69015)">
      <path
         d="m 0,0 0.127,-7.311 -0.99,0 c -1.404,4.384 -3.879,6.576 -7.429,6.576 -1.963,0 -3.489,-0.543 -4.576,-1.628 -1.088,-1.086 -1.63,-2.21 -1.63,-3.373 0,-1.078 0.453,-1.995 1.357,-2.752 0.905,-0.757 2.557,-1.341 4.955,-1.755 2.399,-0.413 4.226,-0.918 5.481,-1.513 1.256,-0.595 2.313,-1.586 3.179,-2.973 0.862,-1.387 1.294,-2.977 1.294,-4.77 0,-2.759 -0.903,-5.057 -2.706,-6.891 -1.802,-1.836 -4.035,-2.754 -6.699,-2.754 -2.176,0 -4.343,0.805 -6.504,2.417 l -1.978,-1.764 -0.735,0 0,7.879 0.905,0 c 0.827,-2.48 1.984,-4.343 3.47,-5.589 1.487,-1.248 3.116,-1.871 4.881,-1.871 1.754,0 3.364,0.578 4.829,1.735 1.465,1.154 2.201,2.615 2.201,4.38 0,1.485 -0.51,2.734 -1.527,3.75 -1.016,1.017 -2.664,1.717 -4.943,2.102 -2.28,0.385 -4.028,0.833 -5.249,1.344 -1.222,0.512 -2.267,1.402 -3.136,2.67 -0.87,1.267 -1.306,2.671 -1.306,4.211 0,2.131 0.758,4.031 2.272,5.705 1.517,1.675 3.572,2.511 6.165,2.511 2.173,0 4.201,-0.687 6.083,-2.059 0.518,0.491 0.968,1.065 1.346,1.723 L 0,0 z"
         style="fill:#aaacae;fill-opacity:1;fill-rule:nonzero;stroke:none"
         id="path1010"
         inkscape:connector-curvature="0" />
    </g>
    <g
       id="g1012"
       transform="matrix(1.25,0,0,-1.25,361.90986,343.29245)">
      <path
         d="m 0,0 16.325,0 0,-1.448 -4.843,0 0,-34.757 c 0,-3.313 -0.3,-5.902 -0.897,-7.767 -0.599,-1.864 -1.824,-3.515 -3.675,-4.953 -1.851,-1.438 -3.835,-2.158 -5.949,-2.158 -2.049,0 -3.818,0.629 -5.31,1.888 -1.492,1.258 -2.239,2.665 -2.239,4.216 0,0.946 0.279,1.736 0.837,2.371 0.558,0.633 1.221,0.951 1.991,0.951 0.754,0 1.378,-0.28 1.87,-0.837 0.492,-0.559 0.736,-1.255 0.736,-2.088 0,-0.606 -0.131,-1.163 -0.393,-1.675 -0.443,-0.511 -0.664,-0.955 -0.664,-1.334 0,-0.53 0.35,-1.004 1.045,-1.42 0.697,-0.416 1.456,-0.625 2.275,-0.625 1.408,0 2.519,0.532 3.33,1.59 0.811,1.061 1.218,3.653 1.218,7.78 l 0,38.818 L 0,-1.448 0,0 z"
         style="fill:#aaacae;fill-opacity:1;fill-rule:nonzero;stroke:none"
         id="path1014"
         inkscape:connector-curvature="0" />
    </g>
    <g
       id="g1016"
       transform="matrix(1.25,0,0,-1.25,240.57806,375.73265)">
      <path
         d="m 0,0 c 3.137,0 5.44,0.641 6.913,1.92 1.471,1.282 2.207,3.243 2.207,5.882 0,4.894 -2.867,7.341 -8.602,7.341 l -8.203,0 L -7.685,0 0,0 z m -2.122,-17.09 0,-2.41 -13.994,0 0,2.41 5.104,0 0,32.233 -5.104,0 0,2.408 17.149,0 c 7.687,0 11.53,-3.25 11.53,-9.749 0,-2.717 -0.717,-4.848 -2.151,-6.396 C 8.978,-0.144 6.884,-1.11 4.13,-1.491 5.736,-1.719 6.987,-2.313 7.887,-3.27 8.785,-4.225 9.501,-5.641 10.038,-7.513 l 2.81,-9.577 3.155,0 0,-2.41 -5.736,0 -3.325,11.126 c -0.422,1.377 -0.9,2.457 -1.433,3.24 -0.539,0.784 -1.197,1.378 -1.98,1.78 -0.784,0.401 -1.721,0.658 -2.81,0.774 -1.091,0.114 -2.402,0.171 -3.93,0.171 l -4.474,0 0,-14.681 5.563,0 z"
         style="fill:#f04d40;fill-opacity:1;fill-rule:nonzero;stroke:none"
         id="path1018"
         inkscape:connector-curvature="0" />
    </g>
    <g
       id="g1020"
       transform="matrix(1.25,0,0,-1.25,299.43906,397.24145)">
      <path
         d="m 0,0 4.416,0 0,32.464 -4.416,0 0,2.294 7.455,0 0,-34.758 4.416,0 0,-2.293 L 0,-2.293 0,0 z"
         style="fill:#f04d40;fill-opacity:1;fill-rule:nonzero;stroke:none"
         id="path1022"
         inkscape:connector-curvature="0" />
    </g>
    <g
       id="g1024"
       transform="matrix(1.25,0,0,-1.25,344.74666,381.75555)">
      <path
         d="m 0,0 c -0.229,3.135 -1.09,5.497 -2.582,7.085 -1.491,1.585 -3.556,2.379 -6.193,2.379 -2.486,0 -4.463,-0.794 -5.936,-2.379 -1.473,-1.588 -2.4,-3.95 -2.781,-7.085 L 0,0 z m -17.492,-2.295 c 0.114,-3.477 0.964,-6.127 2.551,-7.942 1.586,-1.817 3.777,-2.724 6.566,-2.724 2.296,0 4.18,0.535 5.65,1.606 1.471,1.069 2.401,2.599 2.782,4.587 l 2.525,0 c -0.309,-2.675 -1.407,-4.78 -3.299,-6.307 -1.893,-1.531 -4.387,-2.296 -7.484,-2.296 -3.939,0 -7.006,1.196 -9.205,3.586 -2.199,2.389 -3.299,5.802 -3.299,10.237 0,2.065 0.287,3.93 0.86,5.593 0.574,1.663 1.395,3.069 2.467,4.215 1.069,1.147 2.353,2.036 3.843,2.667 1.491,0.632 3.154,0.946 4.99,0.946 3.631,0 6.498,-1.195 8.602,-3.584 C 2.16,5.898 3.211,2.524 3.211,-1.834 l 0,-0.461 -20.703,0 z"
         style="fill:#f04d40;fill-opacity:1;fill-rule:nonzero;stroke:none"
         id="path1026"
         inkscape:connector-curvature="0" />
    </g>
    <g
       id="g1028"
       transform="matrix(1.25,0,0,-1.25,287.30536,373.21555)">
      <path
         d="m 0,0 c 0.08,-0.089 0.166,-0.171 0.244,-0.264 1.607,-1.931 2.408,-4.674 2.408,-8.23 0,-3.556 -0.801,-6.329 -2.408,-8.316 -1.605,-1.989 -3.765,-2.983 -6.481,-2.983 -2.716,0 -4.885,0.994 -6.513,2.983 -1.623,1.987 -2.434,4.76 -2.434,8.316 0,3.556 0.811,6.299 2.434,8.23 0.083,0.097 0.172,0.181 0.258,0.274 -1.203,0.17 -2.313,0.387 -3.297,0.644 -1.738,-2.316 -2.607,-5.383 -2.607,-9.207 0,-4.281 1.087,-7.627 3.269,-10.036 2.178,-2.409 5.142,-3.614 8.89,-3.614 3.747,0 6.7,1.205 8.863,3.614 2.158,2.409 3.237,5.755 3.237,10.036 0,3.814 -0.858,6.876 -2.57,9.189 C 2.307,0.383 1.201,0.167 0,0"
         style="fill:#f04d40;fill-opacity:1;fill-rule:nonzero;stroke:none"
         id="path1030"
         inkscape:connector-curvature="0" />
    </g>
    <g
       id="g1032"
       transform="matrix(1.25,0,0,-1.25,276.22136,366.27095)">
      <path
         d="m 0,0 -2.856,0.05 c 0,0 1.231,9.645 -1.476,15.352 0,0 2.115,0.591 3.74,0.493 C -0.592,15.895 1.18,6.89 0,0 m 14.141,-0.4 c -1.412,0.138 -2.382,0.267 -3.575,0.393 -0.128,0.013 -0.481,0.108 -0.544,0.638 -0.508,5.576 -0.251,11.065 1.946,16.234 -0.473,0.18 -0.884,0.378 -1.316,0.493 -4.832,1.288 -9.734,1.124 -14.684,0.523 -0.927,-0.114 -3.392,-0.672 -3.253,-1.15 1.491,-5.099 2.833,-10.847 2,-16.123 -0.077,-0.493 -0.269,-0.627 -0.738,-0.666 -1.107,-0.095 -2.215,-0.229 -3.31,-0.42 -0.707,-0.08 -0.472,-1.211 -0.204,-1.325 1.418,-0.605 13.538,-2.659 23.741,0.031 0.525,0.139 0.72,1.296 -0.063,1.372"
         style="fill:#aaacae;fill-opacity:1;fill-rule:evenodd;stroke:none"
         id="path1034"
         inkscape:connector-curvature="0" />
    </g>
  </g>
</svg>
